<?xml version="1.0" encoding="UTF-8"?>
<!DOCTYPE svg PUBLIC "-//W3C//DTD SVG 1.1//EN" "http://www.w3.org/Graphics/SVG/1.1/DTD/svg11.dtd">
<!-- Creator: CorelDRAW X6 -->
<svg xmlns="http://www.w3.org/2000/svg" xml:space="preserve" width="1.69332cm" height="1.82032cm" version="1.1" style="shape-rendering:geometricPrecision; text-rendering:geometricPrecision; image-rendering:optimizeQuality; fill-rule:evenodd; clip-rule:evenodd"
viewBox="0 0 1693 1820"
 xmlns:xlink="http://www.w3.org/1999/xlink"
 enable-background="new 0 0 256 256">
 <defs>
  <style type="text/css">
   <![CDATA[
    .fil1 {fill:white}
    .fil0 {fill:#946DA0;fill-rule:nonzero}
   ]]>
  </style>
 </defs>
 <g id="Capa_x0020_1">
  <metadata id="CorelCorpID_0Corel-Layer"/>
  <g id="_192651440">
   <g>
    <path class="fil0" d="M136 1251l-4 -1c-3,-8 -11,-14 -7,-21 1,-5 1,-8 1,-10 0,-1 2,-2 4,-3 2,0 4,-1 5,-1 9,0 15,6 20,14l0 5c-6,6 -12,12 -19,17z"/>
    <path class="fil0" d="M97 1267c0,0 0,0 -1,0 -1,0 -3,-2 -4,-3 -1,-3 -1,-7 0,-10 2,-8 -2,-13 -7,-18l-1 -4c1,-1 3,-1 5,-2 1,0 1,0 2,0 6,0 10,4 12,9 1,5 1,9 5,14 3,5 -4,13 -10,13z"/>
    <path class="fil0" d="M178 1313c-1,-1 -2,-2 -2,-3 0,-5 6,-10 1,-16 0,0 3,-4 5,-5 1,0 1,0 2,0 2,0 3,2 4,4 6,8 5,12 -4,17 -2,1 -4,2 -6,3z"/>
    <path class="fil0" d="M75 1183c-1,0 -2,-1 -2,-3 0,-3 0,-7 0,-10l0 0c0,-3 0,-5 0,-8l3 -2c3,1 7,6 7,10 0,6 -2,10 -7,13 0,0 -1,0 -1,0z"/>
    <path class="fil0" d="M493 1511c0,0 0,0 -1,0 -3,-2 -6,-3 -9,-4l0 2c-2,-1 -3,-2 -4,-3 -2,-1 -4,-1 -6,-2 -1,0 -2,-3 -2,-4 0,-1 2,-3 3,-5 7,4 16,5 21,12l0 2c-1,1 -3,2 -4,2z"/>
    <path class="fil0" d="M114 1293c0,0 0,0 0,0 -4,0 -5,-4 -5,-10 0,-3 3,-5 6,-5 0,0 1,0 1,0 4,1 8,6 8,8 -1,2 -7,7 -10,7z"/>
    <path class="fil0" d="M163 1281l-1 -2c0,-7 0,-13 0,-20l2 -2 2 2c1,2 2,5 3,7 4,8 4,9 -3,14l-2 1z"/>
    <path class="fil0" d="M126 1209l-2 -2c-1,-5 4,-11 8,-11l2 2c1,4 -4,11 -8,11z"/>
    <path class="fil0" d="M137 1312c-3,-2 -2,-4 -1,-6l2 -2c1,2 2,4 3,6l-3 2z"/>
    <path class="fil0" d="M550 1629c0,0 0,0 0,0l-2 -1c-1,0 -3,-1 -5,-1 1,-1 0,-2 -1,-3 0,0 1,-1 1,-1 1,0 4,1 5,2l1 0c1,0 3,1 4,2 -1,1 -3,2 -4,2z"/>
    <path class="fil0" d="M254 452c0,-1 1,-3 2,-3 0,0 1,0 1,0 1,0 2,1 1,2 -1,1 -2,1 -3,1z"/>
    <polygon class="fil0" points="254,453 254,453 254,452 254,453 "/>
    <path class="fil0" d="M254 458c-1,0 -3,-1 -3,-1 -1,-3 1,-3 3,-3 0,2 0,3 0,5z"/>
    <polygon class="fil0" points="254,458 254,458 254,458 254,458 "/>
    <path class="fil0" d="M82 603l-3 -1 0 -2c0,0 1,0 1,0 2,0 2,2 2,3z"/>
    <polygon class="fil0" points="83,604 82,604 82,603 83,603 "/>
    <path class="fil0" d="M59 639l-2 -2c1,-1 1,-2 2,-2 1,0 1,1 2,2l-2 2z"/>
    <path class="fil0" d="M46 665c-1,0 -3,0 -4,0 0,-1 1,-3 1,-3 0,0 1,0 1,0 2,0 2,2 2,3z"/>
    <polygon class="fil0" points="36,671 36,670 36,670 36,671 "/>
    <path class="fil0" d="M41 670c-2,0 -3,0 -4,0 0,-3 2,-4 4,-5 0,2 0,3 0,5z"/>
    <path class="fil0" d="M33 674c0,0 0,0 -1,0l0 -2 3 -1c0,1 0,3 -2,3z"/>
    <polygon class="fil0" points="340,1473 338,1473 340,1470 341,1472 "/>
    <path class="fil0" d="M422 1500c-1,0 -1,-1 -2,-2l2 -1 1 1 0 2c0,1 -1,1 -1,1z"/>
    <polygon class="fil0" points="516,1619 514,1617 516,1616 517,1617 "/>
    <path class="fil0" d="M609 1629c-2,-1 -2,-2 0,-3l1 2 -2 2z"/>
    <path class="fil0" d="M1447 308c-1,-6 -9,-14 -5,-17 6,7 7,13 5,17z"/>
    <path class="fil0" d="M854 95c-5,0 -12,-3 -10,-5 0,0 1,0 2,0 1,0 3,0 5,0 2,0 4,0 5,0 2,0 3,0 3,-2 12,2 -11,4 0,5 -1,1 -2,1 -4,1z"/>
    <path class="fil0" d="M512 133c-2,-4 -2,-7 6,-9 2,4 2,7 -6,9z"/>
    <path class="fil0" d="M1014 116c-10,-2 -20,-4 -29,-6 -9,-2 -18,-3 -27,-5 -18,-3 -35,-5 -54,-8 2,-1 5,-2 10,-2 13,0 34,5 34,8 0,0 1,0 1,0 6,0 9,-2 14,-2 6,4 17,4 27,6 10,1 20,3 24,9z"/>
    <path class="fil0" d="M876 97c-7,-1 4,-2 1,-7 1,0 2,0 3,0 3,0 6,-1 8,-2 2,-1 4,-2 8,-2 1,0 1,0 2,0 -4,5 -18,4 -21,10z"/>
    <path class="fil0" d="M42 658c-1,0 0,-6 2,-13 2,-7 5,-14 7,-14 0,0 0,0 0,0 -3,7 -6,14 -9,26 0,0 0,0 0,0z"/>
    <path class="fil0" d="M435 298c-2,-2 5,-6 9,-6 1,0 2,0 2,1 -5,4 -7,2 -11,5z"/>
    <path class="fil0" d="M1010 27l-6 -2c3,-1 2,-2 -4,-3 1,-1 2,-1 4,-1 2,0 3,0 5,1 -1,2 2,3 1,5z"/>
    <path class="fil0" d="M1066 154l-9 -3c0,-1 2,-2 3,-2 3,0 7,2 6,5z"/>
    <path class="fil0" d="M1096 115c-3,0 -7,-4 -12,-5 0,0 1,0 1,0 3,0 11,4 12,5 -1,0 -1,0 -2,0z"/>
    <path class="fil0" d="M1104 166c-3,0 -9,-4 -12,-4 1,0 1,0 2,0 3,0 7,1 11,3 0,1 -1,2 -2,2z"/>
    <path class="fil0" d="M1129 162c-4,-1 -6,-5 -8,-5 0,0 -1,0 -1,1 -2,-1 -2,-2 -1,-2 1,0 3,0 4,1 4,1 8,4 5,5z"/>
    <path class="fil0" d="M1147 170c-5,-4 -7,-2 -14,-7 0,-1 1,-1 2,-1 4,0 15,5 13,7z"/>
    <path class="fil0" d="M1223 207c-4,0 -9,-6 -10,-8 0,0 0,0 1,0 0,0 1,0 2,0 1,0 1,0 2,0 0,0 1,0 1,0 2,5 3,5 7,8 0,0 -1,0 -1,0z"/>
    <path class="fil0" d="M1278 131c-3,0 -8,-4 -13,-7 0,-1 1,-1 1,-1 3,0 9,6 13,7 0,0 -1,1 -1,1z"/>
    <path class="fil0" d="M1290 276c-4,-4 -8,-9 -14,-13 4,0 15,10 14,13z"/>
    <path class="fil0" d="M1367 270c-3,0 -7,-3 -11,-6 0,0 1,0 1,0 3,0 8,3 10,7z"/>
    <path class="fil0" d="M1379 326c-8,-4 -27,-18 -33,-27 12,8 27,11 34,23 0,0 0,0 -1,0 -2,0 -6,-6 -9,-7 -2,3 5,7 9,11z"/>
    <path class="fil0" d="M1525 387c-1,0 -3,-1 -4,-3 4,0 0,-4 3,-5l4 5c0,1 -1,3 -3,3z"/>
    <path class="fil0" d="M1555 480c-5,0 -14,-19 -14,-23 9,8 6,14 15,23 0,0 -1,0 -1,0z"/>
    <path class="fil0" d="M1604 566c-1,-1 -2,-1 -2,-1 -1,0 -2,0 -2,1 -2,-18 -12,-20 -20,-32 -1,-2 1,-2 2,-3 2,5 6,9 8,9 1,0 1,0 1,-1 7,8 8,18 14,28z"/>
    <path class="fil0" d="M1613 569c0,0 0,0 -1,0l-4 -10c0,-1 1,-1 1,-1 1,0 3,3 4,5 1,3 1,5 0,5z"/>
    <path class="fil0" d="M1606 585c-2,-8 -2,-9 -3,-15 0,0 0,0 1,0 3,0 3,3 3,6 0,3 0,6 2,6 0,0 1,0 1,0 1,3 -2,3 -3,4z"/>
    <path class="fil0" d="M1537 1384c-1,0 -2,-1 -3,-2 5,-5 3,-9 7,-11 2,2 -5,8 -4,10 2,-1 4,-2 5,-4 1,4 -3,7 -6,7z"/>
    <path class="fil0" d="M1216 1663c0,-1 -1,-1 -1,-1 -1,0 -2,1 -4,1 4,-4 14,-6 20,-12 1,3 -7,7 -15,12z"/>
    <path class="fil0" d="M1018 1739c-4,-3 4,-4 10,-6 -1,2 -5,4 -10,6z"/>
    <path class="fil0" d="M813 1775c-7,0 -14,-1 -20,-2 13,-1 21,0 37,-2 -1,1 -6,2 -2,2 -4,2 -9,2 -14,2z"/>
    <path class="fil0" d="M808 1764c2,-6 7,-6 17,-7 -4,3 -12,4 -17,7z"/>
    <path class="fil0" d="M782 1770c-3,-1 -2,-2 1,-2 0,0 1,0 1,0 -2,-4 0,-3 -2,-7 8,0 13,-1 19,-3 3,1 5,3 4,6 -1,1 -3,1 -4,1 -2,0 -3,-1 -5,-1 -1,-1 -3,-1 -4,-1 -1,0 -2,0 -2,1 0,1 4,1 6,1 -2,3 -12,2 -15,5z"/>
    <path class="fil0" d="M761 1778c0,0 -1,-1 -5,-3 4,-1 6,-1 9,-1 1,0 3,0 4,0 1,0 3,0 4,0 2,0 4,0 6,0 -1,2 -3,2 -5,2 -1,0 -3,0 -4,0 -1,0 -3,0 -4,0 -1,0 -1,0 -2,0 -5,1 -3,3 -3,3z"/>
    <path class="fil0" d="M710 1770c-5,0 -16,-1 -22,-2 2,0 4,-1 7,-1 5,0 11,1 17,2 1,0 -1,1 -2,1z"/>
    <path class="fil0" d="M671 1756c-2,-1 -3,-2 -5,-2 0,0 -1,0 -2,0 -1,0 -1,0 -2,0 -1,0 -2,0 -3,0 -1,-2 1,-3 4,-3 4,0 8,2 7,4z"/>
    <path class="fil0" d="M650 1734c-3,0 -5,-1 -10,-1 0,-1 1,-2 2,-2 3,0 9,2 10,3 -1,0 -2,0 -2,0z"/>
    <path class="fil0" d="M629 1614c-4,0 -9,-3 -14,-4 1,0 2,0 3,0 1,0 2,0 3,0 1,0 2,0 3,0 2,0 4,0 7,1l-1 3c-1,0 -1,0 -2,0z"/>
    <path class="fil0" d="M543 1631c-3,0 -6,-3 -12,-4 0,-2 1,-2 2,-2 2,0 6,2 10,3 -1,1 0,2 1,3 0,0 -1,0 -1,0z"/>
    <path class="fil0" d="M511 1653c-7,0 -10,-1 -19,-2 0,-1 -1,-3 -3,-4 0,0 0,-1 1,-1 1,0 2,0 3,1 1,0 2,1 3,1 1,0 1,0 1,-2 5,3 7,3 15,7z"/>
    <path class="fil0" d="M486 1522c-2,0 -4,-2 -7,-3 -2,-2 -4,-3 -6,-3 -1,0 -2,1 -3,2 -3,-3 -6,-5 -12,-8 0,-1 1,-1 1,-1 2,0 6,4 9,5l0 0c-4,-7 7,0 3,-9 7,7 14,10 24,13 0,1 -1,2 -2,2 -2,0 -4,-2 -7,-3 -3,-2 -5,-3 -8,-3 0,0 0,0 -1,0 -3,4 6,6 10,7 -1,1 -2,1 -3,1z"/>
    <path class="fil0" d="M277 1508c-4,-1 -11,-5 -6,-8 5,3 1,5 6,8z"/>
    <path class="fil0" d="M215 1485c-4,0 -14,-13 -14,-15 -1,-1 -3,-2 -4,-2 -2,0 -3,1 -5,2 -2,-6 0,-10 0,-15 4,1 15,15 12,15 0,0 0,0 -1,0 5,5 9,8 13,14 0,0 -1,1 -1,1z"/>
    <polygon class="fil0" points="517,1555 517,1555 517,1555 517,1555 "/>
    <path class="fil0" d="M902 1715l0 -1c3,-1 7,-1 10,-2 -3,1 -7,2 -10,2z"/>
    <path class="fil0" d="M767 1753c2,-7 13,-3 19,-7 -6,-2 -14,-4 -22,-4 -2,0 -4,0 -5,0 1,-1 2,-2 2,-3 -3,2 -7,2 -11,2 -6,0 -12,-1 -18,-3 -3,0 1,1 0,3 -15,-3 -31,-5 -46,-7 -16,-2 -32,-4 -49,-9 0,0 0,0 0,0 -2,0 -2,2 -2,4 -12,-3 -14,-3 -22,-7 2,2 3,2 2,2 -2,0 -14,-6 -16,-8 0,0 -1,0 -1,0 -1,0 -2,1 -2,2 0,1 -1,2 -2,2 0,0 0,0 0,0 -7,-3 3,-5 -5,-8 -2,1 -3,1 -5,1 -5,0 -12,-3 -20,-3 -1,-1 -1,-1 -1,-1 1,0 3,0 6,1 2,0 5,1 6,1 0,0 0,0 0,0 3,-5 -11,-5 -17,-8 -1,0 -1,0 -1,0 -2,0 -1,4 -2,5 -8,-3 -5,-8 -17,-10 -1,0 -1,0 -1,0 -2,0 -1,1 -1,2 1,1 1,2 -1,2 0,0 0,0 0,0 -5,-7 -24,-11 -34,-18 0,0 1,0 1,0 1,0 4,1 5,2 -1,-4 -7,-2 -10,-4 1,1 1,2 3,4 -4,-2 -13,-5 -21,-10 -4,-5 7,-1 2,-6 -1,1 -2,2 -4,2 -2,0 -4,-1 -7,-4 3,-1 9,1 9,-4 -2,-1 -3,-2 -3,-3 -1,-1 -2,-1 -3,-1 -1,0 -1,1 -1,2 0,1 0,2 -1,2 0,0 -1,0 -3,-1 6,-5 -7,-9 -12,-13 0,0 1,0 1,0 2,0 8,4 11,5 1,-3 -4,-6 -10,-8 -1,-1 -1,-1 -1,-1 1,0 3,1 6,2 3,1 5,2 7,2 0,0 1,0 1,0 -9,-6 -31,-17 -43,-17 -2,0 -3,0 -4,1 -3,-2 -7,-5 -10,-5 -1,0 -1,0 -2,1 -8,-13 -31,-18 -36,-24 0,0 0,0 0,0 1,0 3,1 5,1 2,1 4,1 5,1 0,0 0,0 0,0 0,-2 -2,-5 -1,-7 -12,-6 -23,-15 -34,-23 -11,-9 -22,-17 -33,-23 -11,-14 -18,-16 -32,-32 10,9 24,19 38,31 14,12 29,25 43,33 7,4 22,8 19,15 6,3 13,9 17,9 0,0 1,0 1,0 4,3 2,6 9,9 2,1 2,0 4,1 0,0 1,0 1,0 1,0 1,-1 1,-2 0,-1 0,-2 2,-2 0,0 1,0 1,0 3,1 3,7 5,7 0,0 1,0 2,-1 10,8 21,15 34,21 13,6 28,14 46,20 4,8 25,13 34,16 1,-3 -13,-3 -9,-7 6,3 11,3 16,4 -8,5 20,12 26,13 1,-3 -8,-4 -13,-6 1,0 2,0 3,0 21,0 44,16 69,19 -1,2 6,3 5,5 1,0 2,0 3,0 9,0 17,1 26,3 9,2 17,4 26,4 1,0 1,0 2,0 15,4 26,6 36,8 3,0 6,0 9,0 8,0 18,0 30,-1 -2,-1 -2,-3 -2,-4 -1,1 -2,2 -3,2 -3,0 -5,-3 -9,-4 -1,0 -3,1 -5,1 0,0 -1,0 -1,0 3,3 11,3 12,6 -6,-1 -7,-3 -14,-3 -1,0 -2,0 -3,0 -2,-4 3,-6 -8,-6 4,-1 5,-3 10,-3 1,0 1,0 2,0 0,-4 -11,-5 -20,-5 -3,0 -5,0 -7,0 -4,0 -4,1 3,2 -1,0 -2,0 -3,0 -2,0 -5,-1 -8,-1 -3,-1 -6,-1 -7,-1 -2,0 -3,1 -2,2 -14,0 -17,-6 -28,-7 -1,0 -1,0 -2,0 -4,0 -6,1 -9,2 -3,1 -6,2 -9,2 0,0 0,0 0,0l0 -2c-2,0 -6,1 -9,1 -4,0 -8,-1 -8,-5 2,2 6,3 9,3 3,0 5,-1 5,-3 -1,0 -2,0 -3,0 -13,0 -38,-13 -58,-14 -2,-1 -1,-2 -1,-4 -6,-1 -12,-2 -19,-4 -6,-2 -12,-5 -18,-7 -12,-5 -23,-10 -32,-11l1 -3c-1,0 -3,0 -4,0 -5,0 -9,-3 -15,-6 2,0 3,1 4,1 1,0 2,0 2,0 1,0 1,0 2,0 1,0 3,0 8,2 -10,-5 -23,-7 -28,-16 -1,1 -1,3 1,4 0,0 0,0 0,0 -3,0 -12,-8 -15,-11 0,0 0,0 0,0 -1,0 -3,0 -4,-1 -2,0 -4,-1 -5,-1 -1,0 -2,1 0,2 -13,-6 -27,-13 -42,-20 2,-4 9,1 7,-5 13,7 22,15 34,15 1,0 2,0 3,0 2,1 1,3 0,4 0,0 1,0 1,0 1,0 1,0 1,0 0,0 1,0 1,0 0,0 1,0 1,0 -3,-4 -16,-13 -24,-13 -1,0 -2,0 -3,1 -4,-4 -11,-7 -15,-11 2,-3 3,-5 7,-5 2,0 5,1 10,3 0,0 -1,0 -1,0 -1,0 -1,0 -2,0 -1,0 -2,0 -2,0 -1,0 -1,0 -1,1 -3,2 3,4 2,6 3,1 10,4 12,4 1,0 2,-1 0,-2 6,1 3,4 5,7 2,0 3,-1 4,-1 2,0 3,1 5,4 0,0 0,0 1,0 3,0 4,-1 7,-2 6,4 13,7 22,11 8,4 18,6 29,10l-3 1c8,1 13,2 27,7 1,-1 1,-3 -1,-4 6,2 14,5 23,7 9,2 18,3 25,4 -4,5 14,3 18,10 1,-1 3,-1 4,-1 0,0 1,0 1,0 0,0 1,0 1,0 3,0 5,0 5,-2 8,2 -4,1 1,6 1,0 3,0 4,0 2,0 4,0 6,0 2,0 4,0 6,0 3,0 5,0 7,2l1 4c0,0 1,0 1,0 2,0 3,0 5,-1 2,0 3,-1 5,-1 1,0 2,0 2,0l-2 2c0,0 0,0 1,0 1,0 3,0 4,0 2,0 3,0 5,0 1,0 1,0 2,0 5,1 10,6 17,7 0,0 1,0 1,0 3,0 5,-1 7,-2 2,-1 5,-2 7,-2 0,0 0,0 0,0 8,0 15,5 22,5 2,0 3,0 5,-1 6,0 6,3 11,4 19,-2 36,-1 58,-3 2,-2 11,-9 3,-10 0,0 0,0 1,0 12,0 31,-4 18,-8 -1,0 -1,0 -2,0 -3,0 -7,2 -5,2 -7,-1 -16,-2 -24,-2 -7,0 -14,1 -21,3 -43,-4 -83,-6 -121,-18 3,-10 -23,-14 -36,-14 -1,0 -2,0 -3,0 -31,-9 -63,-18 -97,-30 -2,-2 0,-2 1,-3 -2,-1 -3,-1 -4,-1 -1,0 -2,1 -2,2 -5,-6 -28,-12 -23,-18 0,0 -1,0 -1,0 -1,0 -2,0 -2,0 -1,0 -1,0 -2,0 -2,0 -4,-1 -8,-3 2,-1 2,-2 2,-3 -2,-1 -3,-1 -4,-2 2,-1 5,-2 9,-3 -5,-4 -11,-9 -18,-12 -1,1 -11,1 -4,4 0,0 -1,0 -1,0 -5,0 -5,-7 -5,-9 -12,-7 -18,-18 -30,-18 0,0 0,0 0,0 -2,-8 -16,-14 -12,-20 -1,0 -1,-1 -1,-1 -1,0 2,4 -1,4 -12,-7 3,-4 -3,-8 16,5 17,22 33,23 -3,0 -1,1 -2,3 6,0 12,11 17,11 1,0 2,0 2,-1 8,8 20,17 35,22 6,1 12,3 15,9 14,0 28,4 43,9 12,3 24,8 37,11l-1 0c-2,-1 -1,-1 1,-1 0,0 1,0 1,0 0,0 1,0 1,0 1,0 2,0 2,0 1,1 3,3 5,4l1 0 0 0c4,2 8,3 9,6 -3,-1 -6,-2 -9,-4 0,4 11,7 16,7 1,0 2,0 2,0 0,-2 -1,-2 -3,-2 -1,0 -1,0 -2,0 -1,0 -1,0 -2,0 -2,0 -2,-1 -1,-3 6,1 13,2 19,4l-2 -2c10,5 17,3 27,4l1 -1 0 0c-10,-4 -20,-9 -27,-17 -3,-3 -9,-5 -13,-8 -1,0 -1,-1 -2,-1 -2,0 -3,2 -5,3 -1,0 -2,1 -3,1 -1,0 -2,0 -4,-2 -2,-2 -4,-5 -6,-8 -8,-1 -14,-5 -24,-5 -1,0 -2,0 -2,0 0,4 5,8 13,11 0,2 0,5 2,6 0,1 -1,1 -1,1 -1,0 -1,-1 -2,-1 -1,-1 -1,-1 -2,-1 0,0 0,0 0,0 0,-3 -6,-8 -11,-11 0,0 0,0 0,0 -1,0 -1,0 -1,1 0,0 -1,1 -1,1 0,0 -1,0 -1,0 1,5 5,4 12,8 -1,1 -1,1 -2,1 -1,0 -2,-1 -4,-2 -1,-1 -3,-2 -4,-2 -1,0 -2,0 -3,1 0,6 12,9 17,12 -12,0 -32,-14 -47,-18 -5,-5 -13,-8 -18,-13 3,1 4,4 5,4 0,0 1,0 1,-1 -2,-1 -1,-2 1,-2 -2,-1 -3,-3 -6,-4l-1 3 0 0c-4,-4 -5,-7 -1,-12 3,0 5,1 7,1 1,0 1,0 2,0 1,0 1,0 2,0 5,0 10,0 18,5 -5,-12 -27,-8 -33,-12 0,-1 1,-1 1,-1 1,0 1,0 2,1 1,0 2,1 2,1 1,0 1,-1 1,-2 3,2 6,4 9,4 1,0 2,0 3,-1 -2,-1 -7,-5 -11,-5 -1,0 -3,1 -3,2 -6,-6 -13,-10 -20,-12 1,-1 2,-1 3,-1 0,0 1,0 1,0 0,0 1,0 1,0 1,0 2,0 3,-1 0,-2 -2,-3 -5,-5 1,0 2,1 3,1 2,0 4,-1 6,-2 2,-1 3,-2 5,-2 0,0 0,0 0,0 -3,-2 -4,-5 -4,-7 -3,-1 -6,-4 -7,-7 -2,-6 -5,-7 -10,-7 0,0 -1,0 -1,0 -1,0 -3,0 -4,0 -4,0 -7,0 -11,-2l0 3c0,1 -1,1 -1,1 -1,0 -1,0 -2,-1 -1,0 -1,-1 -2,-1 -1,0 -1,0 -1,1 -3,-2 -6,-4 -9,-7 -2,0 -3,0 -5,0 -1,0 -3,0 -4,0 0,0 -1,0 -1,0 -2,0 -4,2 -6,3 2,2 5,3 7,5l1 -1c2,-1 4,-2 5,-2 2,0 4,1 5,2l1 2 -2 2c-1,0 -3,0 -4,0 -1,0 -3,0 -4,0 4,3 9,6 13,9 -7,-1 -19,-10 -29,-13l-2 -1c-2,0 -3,-1 -5,-1 0,0 0,0 0,0 -4,-2 -2,-2 -1,-3 -3,-1 -7,-1 -10,-1 -2,0 -5,-1 -6,-3 -1,-2 -1,-5 -1,-7 -2,-1 -4,-2 -6,-4 -1,-1 -2,-1 -3,-1 -1,0 -2,0 -4,1 -3,2 -2,4 -1,7 1,2 2,3 3,4l0 2 -3 1c2,1 4,3 6,5 7,4 15,8 17,14 10,1 21,10 34,15 -2,0 -3,1 -5,1 -2,0 -4,-1 -6,-2 9,-1 -10,-4 -13,-9 0,0 0,0 -1,0 -2,0 -4,1 -4,2 -3,-3 -10,-7 -17,-13 -7,-5 -13,-11 -16,-16l-2 -2c-1,0 -1,0 -2,0 -2,0 -4,-2 -6,-3 -2,-2 -3,-3 -5,-3 0,0 -1,0 -1,0 0,4 0,8 3,11 3,3 5,9 10,9 2,0 3,-1 6,-3l1 2c1,2 0,5 -1,7 -3,7 -5,14 -8,21 3,4 5,8 8,13 1,1 2,1 4,2l-2 1c2,3 3,5 5,8 1,2 4,3 6,3 0,0 0,0 0,0 0,0 1,0 1,0 9,0 12,7 17,12 4,4 1,10 1,15 0,2 -1,2 -2,2 0,0 -1,0 -1,0 -6,-4 -11,-7 -16,-12l-1 -1c-9,-1 -18,-2 -27,-5 -5,-4 -11,-8 -16,-8 -1,0 -2,0 -3,1 -4,-3 -1,-5 -6,-9 -1,0 -1,0 -2,0 -1,0 -2,0 -2,1 -1,0 -1,1 -2,1 -1,0 -3,-1 -8,-5 -1,0 -2,0 -2,0 -1,0 -3,1 -4,2 2,7 22,14 15,16 1,1 2,1 3,1 0,0 1,0 1,0 0,0 1,0 1,0 0,0 1,0 2,1 2,-2 -8,-5 -3,-6 4,0 8,5 5,7 9,5 13,1 23,8 0,0 -1,0 -1,0 -3,0 -6,-2 -10,-4 -3,2 1,4 -1,6 -9,-6 -15,-7 -22,-9 8,-2 -31,-28 -28,-37 -2,0 -4,-2 -7,-4 -1,-5 -4,-9 -11,-15 -2,-12 -17,-28 -17,-37 2,4 10,9 11,9 0,0 0,0 0,-1 7,5 14,12 21,19 8,7 16,14 25,22 11,9 21,17 31,22l-1 -2c-2,-1 -3,-2 -5,-4 2,1 3,1 4,1l0 -3c0,-3 0,-5 0,-8 2,-9 -1,-17 -9,-23 -8,-6 -9,-14 -6,-23 2,-5 4,-11 6,-16 -3,-3 -5,-6 -8,-8 -2,-2 7,-6 -2,-7 0,-1 1,-2 1,-2 2,0 8,6 6,10 2,1 3,2 4,3 1,-2 1,-5 0,-6 -1,-1 -2,-2 -3,-3l-2 -2 1 1c-1,-2 0,-5 1,-7 -1,0 -2,0 -2,0 -2,0 -5,-1 -8,-2 -10,0 -16,4 -18,14 -1,2 -3,4 -5,6l-2 1 -1 -2c-1,-5 -1,-10 3,-14 -2,-4 -4,-9 4,-9 2,0 2,-2 0,-4 -2,-2 -8,1 -6,-5 1,-4 3,-6 -2,-6 0,0 0,0 0,0 0,0 -1,0 -1,0 -5,0 -9,-2 -10,-8 0,-2 0,-3 0,-3 0,0 -1,0 -2,1l-2 2c-1,2 -2,5 -3,7 -2,6 -7,12 -7,19 0,5 6,10 9,15 4,7 11,12 15,19l2 2 -1 0c1,1 2,2 2,4 1,2 4,4 6,5 4,1 7,2 6,7l0 1c4,5 7,10 10,13 -4,-3 -9,-6 -13,-10l-1 2c-1,1 -1,3 -1,5 -1,1 -2,2 -2,2 -1,0 -1,0 -1,-1 -3,-10 -14,-11 -20,-18 -5,-7 -12,-12 -16,-20 -8,-2 -13,-9 -18,-14 -7,-7 -16,-13 -16,-25 0,-1 -2,-3 -3,-4 -7,-5 -7,-13 -7,-21 0,-9 -2,-11 -12,-14 -12,-4 -13,-6 -20,-18 -4,-7 -7,-15 -3,-22 5,-10 3,-20 3,-30l-2 -2c-1,1 -2,2 -3,3 -1,1 -1,4 -2,4 0,0 -1,0 -1,-1 -5,-8 -7,-17 -15,-23 -4,-3 -3,-8 -3,-12 0,-7 0,-13 -6,-18 -6,-5 -10,-11 -9,-20 0,-2 -2,-5 -3,-7 -4,-8 -8,-17 -12,-25 -3,-8 -6,-16 -9,-23 -2,-7 -6,-12 -13,-14 -5,-1 1,-5 0,-8 -3,-5 -9,-8 -10,-15l-2 -2 -2 2c-1,8 -3,17 0,25 1,4 4,7 -1,10 -5,4 -9,8 -13,12 -1,1 -2,1 -3,1 -2,0 -3,-1 -3,-2 -1,-5 -9,-9 -3,-16 2,-3 2,-8 3,-12 2,-5 0,-5 -3,-7 -3,-1 -3,-3 -4,-6 -2,-8 -4,-17 -8,-24 -4,-7 -1,-10 2,-14 -1,-3 -2,-6 -3,-9l-1 -2c-1,-3 -2,-6 -3,-9 -6,-3 -13,-6 -19,-9 -5,-3 -7,-11 -15,-11 -1,0 -2,0 -3,0 0,0 0,0 0,0 -1,0 -2,-3 -3,-4 -6,-11 -12,-22 -11,-36 -4,-7 -5,-14 -6,-22 0,-3 -3,-6 -6,-8 -6,-5 -9,-12 -13,-19 -2,-4 -3,-9 -2,-20 0,-5 1,-10 -3,-15 -3,-3 0,-4 1,-6 1,-2 2,-5 1,-7 -7,-14 -4,-28 -5,-43 0,-3 0,-7 0,-10 0,-5 -3,-5 -6,-7 -3,-1 -4,-5 -3,-6 7,-8 4,-18 5,-27 0,-9 2,-19 -5,-27 1,-5 4,-11 0,-16l2 -4c6,-2 9,-5 8,-11 -1,-8 2,-15 4,-22 2,-6 1,-14 1,-21 10,-9 1,-24 9,-33 -2,-4 -7,-8 -2,-11 2,-1 4,-3 6,-5 0,-1 1,-3 1,-4l0 2c1,-1 2,-3 3,-4 2,-4 5,-7 9,-9 7,-5 0,-8 0,-13 3,0 5,-2 5,-5 1,-1 3,-1 4,-2 16,-9 16,-9 16,-27 0,-6 3,-10 7,-12 2,-1 5,-2 7,-4 1,-4 2,-8 3,-12l1 -3c-1,-1 -2,-2 -2,-4 0,0 1,0 1,0 1,0 1,0 2,0 13,-40 30,-78 61,-109 4,-15 14,-25 20,-41 2,-1 4,-3 5,-3 0,0 0,0 1,0 1,0 1,0 1,0 3,0 5,6 7,9 -14,11 -4,15 -17,19 -10,29 -36,60 -47,90 -2,5 -3,10 -4,15 2,-4 6,-7 10,-9 4,-2 8,-9 9,-15 1,-3 -5,-7 3,-7 0,0 0,0 0,0 0,0 0,0 0,0 7,0 11,-5 15,-9 3,-3 2,-5 1,-8 0,-6 3,-13 9,-17l2 -1c1,2 2,3 2,5 0,2 -1,3 -2,5 -4,4 1,6 3,8 1,1 2,1 2,1 1,0 3,-2 4,-3 3,-3 7,-6 10,-9 2,-2 5,-4 5,-6 -2,-14 9,-17 18,-21 7,-3 11,-8 16,-12 9,-9 19,-18 31,-21 1,0 1,-2 2,-4 4,-1 8,1 10,-5 3,-9 11,-13 17,-19 1,-1 3,-2 4,-2 0,0 0,0 0,0 0,0 1,0 1,0 8,0 11,-5 14,-11 2,-4 4,-7 8,-8 2,2 3,2 4,2 2,0 4,-3 6,-5 1,-1 2,-3 2,-4 1,-3 2,-4 5,-4 0,0 0,0 0,0 1,0 2,0 3,0 8,0 15,-1 21,-5l3 -3 2 -2 1 0c5,-5 11,-9 17,-14 1,-1 1,-3 2,-4 4,-8 13,-11 21,-13l1 0c2,-2 4,-4 5,-6 6,-7 13,-13 17,-19 -2,-1 -4,-2 -7,-2 -1,0 -3,0 -5,0 -2,0 -3,0 -4,0 -4,0 -7,-1 -7,-4 2,0 3,-1 5,-1 3,0 6,1 9,1 3,1 6,1 9,1 0,0 0,0 0,0 21,-12 40,-27 58,-42 9,-7 19,-15 29,-22 10,-7 20,-14 32,-20 -2,-5 -6,-5 -11,-5 0,0 -1,0 -1,0 0,0 -1,0 -1,0 -4,0 -8,0 -10,-3 0,0 1,0 1,0 4,0 10,-4 16,-6 -3,-5 -8,-6 -14,-6 -2,0 -4,0 -6,0 -6,4 7,3 1,9 -5,2 -10,3 -14,3 -5,0 -10,-2 -12,-7 -8,3 -13,7 -18,7 -2,0 -5,-1 -7,-3 -33,14 -58,31 -80,47 -11,8 -22,16 -34,24 -6,4 -12,8 -18,11 -6,4 -12,8 -19,12 -12,10 -25,23 -39,34 -13,12 -27,23 -37,32 -5,8 -12,17 -20,26 -8,9 -17,19 -26,27 1,-13 13,-16 20,-24 30,-34 60,-73 97,-100 19,-14 34,-22 61,-43 4,-3 5,-7 9,-11 31,-28 77,-42 112,-66 -5,-6 -12,-8 -21,-8 -2,0 -5,0 -8,1 -49,25 -70,43 -98,63 -4,-19 13,-31 36,-50 9,-4 18,-8 24,-8 1,0 1,0 2,0 43,-26 85,-49 131,-65 41,-14 85,-23 131,-23 4,0 9,0 14,0 -3,1 -2,1 0,1 1,0 2,0 3,0 -9,3 -22,7 -33,10 1,-3 5,-4 11,-5 -2,-2 -4,-2 -6,-2 -3,0 -5,1 -8,2 -3,1 -5,2 -7,2 -2,0 -4,-1 -5,-3 -8,3 -3,3 -1,7 -5,0 -8,-2 -13,-2 -3,0 -7,1 -13,3 -6,3 -7,7 -9,11 10,-1 11,-6 22,-7 3,4 11,6 16,8 3,-2 2,-4 8,-5 2,-1 4,-1 4,-1 3,0 -4,4 -3,6 3,0 6,0 10,0 5,0 10,0 14,-1 8,-1 15,-4 17,-10 8,3 21,5 36,5 16,0 33,-3 40,-12 6,2 15,3 24,3 2,0 5,0 7,0 6,0 13,-1 20,-1 7,0 14,-1 21,-1 5,0 10,0 16,0 23,0 45,3 57,14 15,0 27,2 38,4 11,2 22,6 33,11 48,5 106,20 159,45 49,22 94,52 128,83 2,1 5,3 7,4 2,2 4,4 6,6 6,2 12,5 18,9l1 -1 2 2 -1 1c2,1 4,2 6,3 8,6 17,13 26,22 -1,-2 -2,-4 -4,-6l0 -1c-4,-4 -7,-6 -11,-8 0,-2 0,-3 1,-5 1,5 6,8 10,10l0 -1 2 -1c2,0 4,0 5,1 2,6 3,11 2,17 3,2 6,4 9,5 1,-1 2,-3 2,-5 1,-3 4,-4 8,-4 3,0 6,1 8,3 2,3 3,8 6,11 3,3 6,4 10,6l0 0c1,-1 0,-2 -1,-4 0,-1 1,-1 1,-1 1,0 2,3 1,4l2 2c1,0 3,1 4,1 -1,-1 -2,-2 -3,-3l2 -2c1,2 2,4 3,6 9,2 19,5 29,11 0,-1 0,-3 0,-4 -1,-1 -2,-3 -4,-4l3 1c-1,-3 -3,-6 -4,-8 1,0 2,1 3,1 -1,-2 -3,-4 -4,-6 -6,-4 -14,-9 -18,-16 0,0 1,0 1,0 1,0 2,0 2,-1 -8,-9 -15,-14 -22,-19 -7,-5 -13,-10 -18,-19 5,0 3,7 11,12 0,-8 -10,-18 -18,-25 0,0 1,0 1,0 2,0 3,1 5,2 2,1 4,2 5,2 1,0 2,0 2,-1 4,7 8,12 13,17 5,5 11,9 18,16 0,0 0,0 -1,0 -1,0 -2,-1 -3,-1 -1,-1 -2,-1 -3,-1 0,0 -1,0 -1,1 9,7 14,12 20,17l0 -2c-12,-13 -21,-24 -29,-35 -8,-10 -17,-20 -29,-30 -12,-9 -26,-11 -37,-18 -16,-10 -23,-25 -39,-29 -3,-4 3,-7 -3,-12 -30,-8 -64,-38 -104,-52 -42,-14 -82,-17 -116,-18 -6,-1 -7,-4 -11,-5 -3,0 -6,0 -8,0 -10,0 -18,-2 -31,-3 5,-4 1,-4 3,-10 3,2 2,4 8,6 2,1 3,1 4,1 4,0 5,-3 9,-4 19,15 50,5 71,14 8,-3 17,-4 26,-4 3,0 5,0 8,0 12,1 25,5 40,9 25,9 44,27 66,40 16,9 32,20 49,29 16,11 32,21 44,32 1,1 1,1 2,1 1,0 1,0 2,-1 1,0 1,-1 2,-1 1,0 1,0 2,1 20,10 36,26 49,44 13,18 25,37 36,55 4,6 9,11 14,17 5,6 10,11 15,17 1,1 2,3 3,4 0,0 0,0 0,0 1,0 2,1 4,3l-1 1c4,5 6,11 8,16 7,7 16,16 16,24 1,1 2,2 4,2 1,0 1,0 2,-1 5,8 9,16 13,23 12,16 23,33 33,51l0 0c4,8 9,16 13,24l-1 0c1,3 2,5 3,8 3,3 6,7 10,9 -1,0 0,4 1,8 0,0 1,0 1,0 2,0 3,1 2,2 0,2 0,3 0,5 2,4 5,7 8,7 0,0 0,0 1,0 -1,7 7,34 14,37 -3,4 -1,10 2,16 2,2 2,4 3,6 1,2 1,4 2,6l1 1c3,-1 6,-3 9,-4 -1,-5 -3,-13 -1,-15 1,6 0,7 3,12l-2 2c1,-1 3,-1 4,-2l2 -1 -2 -2c0,-2 0,-3 0,-3 0,0 1,0 1,1 1,0 1,1 2,1 0,0 1,0 1,-1 -2,-7 -6,-3 -9,-10 3,1 6,5 9,6 -2,-7 -6,-6 -8,-13 2,-1 -1,-6 2,-6 0,0 0,0 0,0 -1,8 3,9 7,16 1,-4 -8,-27 -12,-29 0,-4 -5,-12 -2,-13 3,6 1,7 4,12 2,0 1,-2 0,-5 5,6 4,17 9,24 0,1 1,1 1,1 0,0 0,-1 1,-1 0,-1 1,-1 1,-1 0,0 0,0 0,0 5,4 3,15 8,15 0,0 0,0 0,0 -1,9 9,25 13,34 -2,10 4,22 6,34 4,-5 -1,-13 -4,-26 5,3 3,16 8,25 0,0 0,0 0,0 -2,0 -1,3 0,6 1,3 2,6 0,6 0,0 -1,0 -2,0 5,11 5,15 6,27 10,7 9,37 15,45 1,10 3,20 4,31 1,5 1,11 2,16 0,5 1,11 1,17 1,22 3,45 4,69 -1,47 -1,96 -9,142l-3 0c1,1 3,12 1,12 0,0 -1,0 -1,-1 3,10 -3,28 -5,39 0,-3 0,-7 0,-11 0,-4 0,-8 0,-12 0,-9 1,-18 2,-27 2,-18 5,-37 8,-51 0,1 -1,1 -1,1 -1,0 -2,-4 -2,-8 0,-4 1,-8 2,-8 0,0 1,0 1,1 -5,-23 -1,-41 -4,-66 1,1 1,2 2,2 1,0 1,-1 2,-4 -4,-7 -5,-18 -3,-28 1,-6 -2,-4 -3,-8 0,5 -2,15 -4,21 0,4 1,9 1,13 1,6 0,8 2,15l-1 0c1,13 2,26 3,39 -1,0 -2,-1 -3,-1 0,0 0,0 0,0 1,11 1,23 0,35 -2,15 -4,31 -6,45 -1,5 -2,9 -2,9 0,0 0,0 0,0 0,0 0,0 0,0 0,0 0,0 0,0 0,14 -3,38 -11,39 6,5 -5,13 -4,25 -1,0 -1,-1 -2,-1 -6,0 -9,21 -8,29 5,-4 8,-16 9,-26 4,14 -12,41 -5,52 -6,21 -16,30 -19,50 -1,-1 -2,-3 -4,-3 -1,0 -2,1 -3,3 -3,10 2,3 4,8 -9,20 -12,46 -28,70 -1,4 -1,4 0,4 0,0 0,0 0,0 0,0 0,0 0,0 1,0 1,0 1,2 -4,11 -8,18 -11,24 -3,5 -6,10 -8,15 -3,0 -7,3 -11,11 -1,-1 1,-4 2,-6 0,-1 -1,-1 -1,-1 -2,0 -3,4 -5,5 0,3 3,0 -2,8 -1,-2 2,-6 -1,-6 0,0 0,0 -1,0 3,-9 10,-14 5,-17 6,-2 8,-8 9,-14 1,-6 2,-14 8,-21 0,0 -1,0 -1,0 -4,0 -5,5 -6,10 -1,5 -3,10 -6,10 0,0 0,0 0,0 -3,7 -1,10 -7,16 -2,-1 3,-7 2,-8 -4,2 -8,13 -10,16 0,0 0,0 0,0 1,0 2,-2 3,-3 -1,2 -5,12 -7,12 0,0 -1,0 0,-2 -1,4 -3,8 -3,11 -2,3 -3,4 -4,4 -1,0 -1,-1 -1,-2 -1,3 -1,4 0,4 1,0 2,-1 3,-2 -1,7 -6,7 -12,15 2,-2 3,-2 4,-2 1,0 -12,12 -13,16 1,0 2,0 2,0 1,0 1,0 2,1 -3,3 -5,-1 -8,5 0,9 -20,26 -26,44l-3 -2c-5,5 -4,7 -7,11 2,0 4,-1 6,-3 0,2 -5,6 -7,11 -1,-2 2,-6 -2,-7 -4,7 -8,11 -13,14 -1,1 -1,2 -1,2 0,0 1,0 1,0 0,0 1,0 1,0 1,0 1,0 1,1 -7,4 -16,10 -11,16 -9,7 -5,21 -23,37 1,-3 1,-3 1,-3 0,0 -2,2 -5,3 -1,3 -1,6 -3,9 -6,3 -6,2 -12,10 -2,-2 0,-3 -2,-3 0,0 -1,0 -2,0 -2,6 -5,8 -9,16 0,-1 -1,-2 -2,-2 -2,0 -4,2 -7,8 0,0 0,0 -1,0 -2,0 -4,1 -6,3 -2,1 -4,3 -6,3 -1,0 -1,0 -1,-1 -4,4 2,4 -4,8 -4,-3 -4,-1 -3,-6 -4,4 -8,7 -10,8 0,1 1,1 2,1 1,0 1,0 2,0 1,0 1,0 2,0 1,0 2,0 2,2 -8,7 -27,20 -33,20 -1,0 -1,0 -2,-1 -2,2 0,3 1,5 -2,2 -4,2 -5,2 -2,0 -4,-2 -6,-2 7,-4 3,-6 10,-11 -14,4 -16,12 -28,19 1,1 2,1 4,1 3,0 7,-2 11,-6 -2,3 -6,7 -11,11 -1,-2 -4,0 -4,-2 -8,4 -5,7 -11,11 -1,-1 1,-3 -1,-5 -6,13 -16,19 -27,24 -11,6 -22,11 -32,22 5,-6 1,-6 7,-13 0,0 0,0 -1,0 -1,0 -3,1 -3,2 -1,-2 -2,-3 -4,-3 -7,0 -20,12 -29,18 1,-4 9,-9 14,-14 0,0 0,0 0,0 -2,0 -6,1 -9,3 -3,2 -5,4 -3,6 -7,2 -8,4 -15,8 0,0 -1,0 -1,0 -3,0 11,-6 9,-8 0,0 -1,0 -1,0 -8,0 -24,10 -26,11 -4,2 -8,4 -8,4 0,0 0,0 0,0 -9,7 -16,4 -22,7 -2,1 -3,6 -8,7 -14,5 -44,14 -64,28 -2,0 -2,-2 -4,-2 0,0 -1,0 -1,0 1,-2 2,-2 3,-2 1,0 1,0 2,0 1,0 1,0 2,0 1,0 2,0 4,-1 -1,-1 -3,-2 -5,-2 -6,0 -15,4 -21,6 2,1 5,0 5,2 -10,2 -28,-1 -33,8 -1,0 -2,1 -3,1 -2,0 -2,-1 -3,-3 -9,3 -9,3 -14,5 0,1 1,1 2,1 1,0 2,0 3,0 -7,7 -15,2 -26,9 0,-2 -1,-2 -3,-2 -1,0 -2,0 -2,0 -1,0 -2,0 -2,0 -1,0 -3,0 -3,-1 -13,4 -31,9 -51,12 -10,2 -20,3 -29,4 -6,0 -13,1 -18,1 -3,0 -6,0 -9,0 -7,4 -14,4 -22,4 -1,0 -3,0 -4,0 -1,0 -3,0 -4,0 -6,0 -12,0 -18,2 -4,-1 -11,-1 -11,-5 -3,1 -4,2 -6,2 -2,0 -3,0 -6,-1 -5,0 3,2 0,4 -2,0 -4,0 -6,0 -13,0 -19,7 -32,7zm27 -34c11,2 22,3 33,3 10,0 20,-1 29,-1 10,-1 20,-2 30,-3 5,-1 9,-1 14,-2l3 -1 0 3c23,-5 42,-2 63,-10 -2,-1 -5,-2 -9,-2 -6,0 -13,1 -21,2 -7,1 -15,2 -21,2 0,0 -1,0 -1,0 4,-5 28,-2 36,-7 -1,0 -3,0 -3,0 -6,0 2,-4 0,-7 -2,0 -4,-1 -7,-1 -7,0 -15,1 -19,5 2,0 6,-1 9,-1 1,0 2,0 2,2 -7,0 -14,3 -24,6 0,-3 3,-4 -3,-4 -1,1 -2,1 -3,1 -1,0 -2,0 -4,-1 -1,0 -3,-1 -4,-1 -1,0 -1,0 -2,0 -1,2 6,4 1,5 -4,-3 -10,-4 -17,-4 -29,8 -64,8 -84,8 2,0 2,2 2,3 0,0 0,0 -1,0 -2,0 -3,0 -5,0 -2,0 -3,0 -5,0 -3,0 -5,0 -6,2 4,1 7,2 12,3 0,0 0,0 0,0 3,0 2,-2 4,-2zm-25 -8c-1,0 -2,1 -3,2 1,0 5,2 7,2 1,0 3,0 3,-1 -2,-1 -5,-2 -7,-2zm3 -8c-1,2 -6,2 -4,5 4,-1 9,-2 15,-2 4,0 8,0 12,0 4,0 9,1 13,1 6,0 12,-1 18,-2 -2,-2 -15,-3 -23,-3 -6,0 -10,1 -5,3 -12,-1 -15,0 -26,-2zm-51 -11c5,9 21,7 37,10 0,2 -6,1 -4,4 2,0 3,0 5,0 4,0 7,-1 6,-4 -9,-1 -14,-3 -16,-7 3,0 4,1 6,1 1,0 3,0 4,-2 -4,-1 -5,-2 -8,-4 -7,1 -12,3 -18,3 -3,0 -7,-1 -12,-2zm69 8c8,0 17,0 25,1 12,0 22,-1 29,-3 0,0 0,0 0,0 -1,0 -2,0 -3,0 -1,0 -2,0 -3,0 -2,0 -3,0 -2,-2 -5,1 -10,1 -14,1 -4,0 -8,0 -12,0 -4,0 -8,0 -12,0 -7,0 -14,1 -19,4 4,0 8,0 12,0zm122 -2c2,0 3,0 4,1 1,-3 6,-4 7,-7 -1,0 -1,0 -2,0 -4,0 -8,1 -11,3 -3,1 -6,3 -10,3 -1,0 -2,0 -3,0 0,1 2,2 4,2 2,0 3,0 5,0 2,0 4,0 5,0zm-218 -4c-1,0 -2,0 -3,0 -2,2 3,4 7,4 1,0 2,0 3,-1 -2,-1 -2,-2 -2,-4 -2,0 -3,0 -5,0zm292 -12c1,0 2,0 3,1 -11,2 -20,4 -23,7 -3,3 -1,5 8,8 -3,-4 -3,-5 2,-8 0,1 2,2 4,2 4,0 8,-1 8,-4 0,0 -1,0 -1,0 -1,0 -2,0 -3,0 -1,0 -2,0 -3,0 -1,0 -1,0 -1,-1 24,-5 45,-11 69,-15 11,-9 48,-14 55,-25 -2,0 -4,-1 -7,-1 -2,0 -5,1 -10,3 2,2 1,5 -4,6 1,-2 1,-4 0,-6 -6,4 -13,8 -22,9 0,1 0,2 1,2 1,0 3,-1 4,-1 2,-1 3,-1 4,-1 1,0 1,0 1,1 -14,7 -13,4 -27,7 -5,3 6,2 1,4 -1,-1 -2,-1 -3,-1 -1,0 -3,0 -4,1 -1,0 -3,1 -4,1 -1,0 -2,0 -3,-1 -20,6 -21,7 -40,13 -1,-1 0,-4 -3,-4 0,0 0,0 0,0 0,3 -11,3 -9,6 2,0 5,-1 8,-1zm-136 10c-4,3 4,5 14,5 9,0 19,-1 26,-3 -4,-1 -8,-1 -12,-1 -3,0 -6,0 -9,0 -3,0 -6,0 -9,0 -4,0 -7,0 -10,-2zm48 -3c0,0 -1,0 -1,0 0,2 -6,1 -5,4 1,0 3,2 6,2 1,0 2,0 2,-2 0,0 -1,0 -1,0 -2,0 -1,-1 0,-2 1,-1 2,-2 0,-2zm63 -4c-12,4 -23,1 -29,7 9,0 15,1 22,1 2,0 4,0 7,0 -2,-3 0,-5 0,-8zm36 2c-1,0 -3,0 -5,1 0,2 3,2 3,4 3,-2 10,-3 11,-5 -2,1 -3,1 -5,1 -1,0 -2,0 -3,0 -1,0 -2,0 -3,0zm-64 -22c-5,2 -19,3 -31,6 -11,3 -20,5 -16,10 10,-1 16,-4 23,-5 6,-2 13,-3 25,-5l-2 2c11,-3 9,-7 0,-9zm18 -1c-4,1 -8,2 -7,5 1,0 1,0 2,0 3,0 5,-2 5,-5zm-408 -11c-1,0 -2,1 -2,2 3,1 9,4 12,4 1,0 1,0 1,-1 -5,-1 -9,-6 -11,-6zm478 -4c-5,0 -9,1 -11,4 5,-3 13,1 11,-4zm42 -2c-8,2 -13,0 -15,6 4,-2 14,-3 15,-6zm-229 3c-1,0 -1,0 -2,1 6,2 13,2 20,2 7,0 14,-1 21,-2 7,-1 13,-2 20,-3 6,-1 12,-3 18,-3 0,-2 -2,-3 -3,-3 -2,0 -5,1 -8,2 -3,1 -6,2 -9,2 -2,0 -3,0 -4,-1 4,-3 18,1 16,-6 -5,1 -7,1 -7,1 -1,0 -1,-1 -4,-1 -6,4 -10,3 -24,4 -2,3 9,3 4,5 -1,0 -2,-1 -2,-1 -1,0 -1,0 -2,0 -1,0 -1,0 -2,0 -1,0 -2,0 -2,-2 1,-1 2,-4 -1,-7 -6,3 -25,3 -33,8 0,0 1,0 1,0 2,0 4,0 6,0 2,0 4,0 6,0 2,0 3,0 4,1 0,2 -5,1 -5,3 1,0 4,0 4,1 -1,0 -1,0 -2,0 -2,0 -4,-1 -5,-1 -1,-1 -3,-1 -4,-1zm84 -5c1,0 2,0 3,0 1,0 2,0 3,0 2,0 4,0 4,-2 -1,0 -1,0 -2,0 -4,0 -8,-2 -4,-4 10,-1 24,-3 37,-5 3,-1 7,-1 10,-2 3,-1 6,-2 9,-3 6,-2 12,-4 16,-7 0,0 0,0 -1,0 -2,0 -2,-1 -2,-3 -9,3 -18,5 -26,6 -8,1 -16,2 -23,2 -14,2 -27,4 -38,11 0,0 0,0 0,0 1,0 3,0 5,-1 2,0 4,-1 5,-1 1,0 2,0 2,1 1,2 -2,3 -1,5 1,0 1,0 2,0zm-360 -8c-1,0 -2,0 -2,1 3,0 8,3 10,3 1,0 1,0 1,-1 -1,-2 -6,-4 -9,-4zm84 -13l0 0c-1,-6 -2,-11 0,-14 -8,-1 -19,-4 -25,-4 -3,0 -5,1 -3,4 0,0 -1,0 -1,0 -5,0 -12,-4 -19,-8 -7,-4 -13,-8 -19,-8 -2,0 -3,0 -5,1 -8,-3 -15,-6 -22,-8 -7,-2 -14,-4 -21,-5 -3,-1 -6,-1 -9,-2l2 1c7,4 13,8 19,11 19,3 35,11 51,18 16,6 33,12 52,14zm598 -11c-4,5 -13,6 -12,11 4,-4 14,-8 12,-11zm-761 4c-1,0 -2,1 -2,2 3,2 8,3 10,3 1,0 2,-1 0,-2 0,0 0,0 0,0 -1,0 -2,-1 -4,-2 -2,-1 -3,-2 -4,-2zm800 -3c1,0 1,0 2,1 1,0 1,1 1,1 1,0 1,-1 2,-3 0,0 0,0 1,0 1,0 2,0 1,-1 -1,0 -1,0 -1,0 -1,0 -2,-1 -2,-2 -3,2 -7,4 -7,5 1,-1 2,-1 3,-1zm30 -54c-8,7 -20,16 -31,24 -11,8 -20,15 -21,19 6,-5 17,-12 28,-19 10,-8 21,-17 25,-24zm-23 31l-7 4c0,1 1,1 2,1 2,0 5,-2 7,-3l-2 -3zm10 -11c-4,3 -10,7 -9,9 3,0 7,-3 11,-7l-2 -3zm63 -20c0,0 0,0 -1,0 -1,5 0,5 3,7 6,-5 1,-7 -3,-7zm9 -2c-1,1 -1,1 0,1 1,0 2,-1 3,-1 -1,-1 -1,-2 -1,-4 -1,1 -1,1 -2,1 0,0 0,0 -1,0 0,0 0,0 -1,0 0,0 -1,0 -1,0 1,1 -1,2 -3,3 0,1 1,1 1,1 1,0 3,-1 4,-1zm35 -22c0,0 0,0 0,0 -2,2 -6,5 -6,7 7,-4 3,-4 9,-10 -3,0 -11,1 -12,3 1,-1 2,-1 2,-1 1,0 -1,4 1,4 2,-1 4,-4 5,-4zm-884 -31l-2 0c1,0 2,1 4,1l0 -1 0 0 -2 0zm935 -24c-4,4 -15,9 -14,14 3,-3 5,-6 6,-6 0,0 1,1 0,2 2,-3 9,-8 8,-10zm19 -42c-7,5 -15,17 -28,28 4,8 -8,16 -10,22 14,-9 16,-17 18,-26 8,-3 20,-16 20,-24zm-38 39c-2,3 -8,8 -5,10l7 -8 -2 -2zm-1019 -6l0 1 -1 0 0 0 0 -1 1 0 -1 -1zm-27 -1l0 0 0 -1c0,-3 -1,-6 -5,-6 0,0 -1,0 -1,0 -2,0 -4,2 -4,4 0,0 1,0 1,0 1,0 2,-1 3,-2 3,2 4,4 6,6zm24 -12l-1 1 -1 1 2 1 2 -2 -2 -2 0 0 0 0zm1020 -1c1,0 1,0 2,1 5,-7 12,-9 10,-13 -5,3 -10,7 -15,12 0,1 1,1 2,1 0,0 0,0 1,0 0,0 0,0 1,0zm22 -25c-4,5 -6,9 -5,12 3,-1 11,-10 9,-12 -1,1 -1,1 -2,1 -1,0 -2,-1 -2,-1zm42 -28c-10,9 -16,23 -25,31l4 3c3,-8 7,-10 14,-18 -2,-6 7,-10 6,-16zm-1196 -8c0,0 -1,0 -1,0 -6,8 -10,17 -13,27 0,1 2,3 3,3 0,0 1,0 1,0 1,0 4,-1 4,-1 1,-10 8,-16 12,-24l0 -2 0 -1 -1 -1 0 0c-1,0 -3,-1 -4,-1zm-9 -10c-1,0 -3,0 -4,1 -3,2 -2,6 -2,9l0 0 0 1c-1,1 -2,1 -3,2l0 2c0,0 1,0 1,0 2,0 2,-2 2,-3l0 0 0 0c0,0 0,0 1,0 3,0 5,-3 7,-5 1,-1 1,-2 1,-4 0,-1 -1,-1 -3,-1zm-16 -5c-1,0 -3,1 -4,2 1,1 3,2 4,2 1,-1 3,-1 4,-2 -1,-1 -3,-2 -4,-2 0,0 0,0 0,0zm-20 -16c0,2 0,5 0,7l2 2 3 -3c1,-4 -1,-6 -5,-6l0 0 0 0 0 0c0,-2 0,-3 -2,-3 0,0 0,0 -1,0l0 2 3 2 0 0 0 1 0 0 0 0zm1321 -51c-3,5 -5,9 -3,10 1,-2 3,-3 4,-3 0,0 1,0 1,0 3,-5 6,-11 9,-13 0,-1 -1,-1 -1,-1 -2,0 -4,6 -6,9 0,-2 0,-2 -1,-2 0,0 0,0 0,0 0,0 0,0 0,0 -1,0 -1,0 -1,-2zm-1339 -16l-1 2 -1 2c0,1 1,4 1,4 0,0 1,0 1,0 2,0 2,-2 2,-4 0,-1 -1,-3 -2,-4l0 0zm1359 -13c-4,6 -7,7 -7,14 4,-6 7,-7 7,-14zm-16 -15c-3,0 -5,8 -8,10 4,0 1,5 5,5 6,-9 7,-21 13,-33 0,0 0,0 0,-1 0,0 0,0 0,1 -4,7 -11,14 -9,18 0,0 -1,-1 -1,-1zm5 -23c-3,5 -2,9 0,9 1,0 1,0 2,-1 4,-9 3,-8 7,-15 0,0 0,0 -1,0 -2,0 -3,2 -4,5 -1,2 -2,5 -3,5 0,0 -1,-1 -2,-2zm14 -37c-2,5 -2,8 -2,10 3,-2 5,-10 2,-10zm28 -31c0,0 0,0 0,0 -4,4 -2,7 -5,14 0,0 1,1 1,1 2,0 4,-4 5,-7 1,-4 1,-7 -1,-7zm-27 -4c-2,8 -5,10 -5,16 2,-2 8,-15 5,-16zm8 -17c-2,12 -4,15 -2,23 2,-7 9,-16 6,-20 -2,4 -2,5 -3,5 -1,0 0,-6 -1,-8zm32 5c-5,0 -9,8 -13,11 1,1 2,1 3,1 4,0 7,-6 11,-12 0,0 0,0 0,0zm-34 -17c-1,5 -7,14 -3,14 0,0 0,0 0,0 0,-7 6,-11 3,-14zm4 -5c1,3 -1,10 -3,12 0,2 2,2 6,4 3,-10 6,-23 2,-23 0,0 -1,0 -1,0 1,-4 4,0 5,-5 0,-10 -2,-17 3,-37 2,1 -3,11 1,11 0,0 0,0 0,0 1,-4 5,-23 2,-27 2,-1 3,0 6,-5 -1,-5 2,-11 3,-17 1,-6 2,-12 -1,-16l0 0c-1,1 -3,2 -4,2 0,0 0,0 0,0 -1,8 -3,16 -4,24l0 1c4,-4 4,-8 6,-17 4,3 -4,17 -6,26 0,0 0,0 0,0 -1,0 -1,-2 0,-4 1,-2 1,-4 0,-4 0,0 0,0 -1,0 -1,5 -3,9 -4,14 0,1 1,2 1,2 0,0 1,0 2,-1 0,0 0,0 0,0 1,0 1,2 0,4 0,2 -1,4 0,4 0,0 1,0 1,0 -1,1 -1,1 -1,1 -1,0 -1,-2 -2,-2 -1,15 -9,33 -10,48 0,-1 -1,-2 -1,-2 -1,0 -1,1 -2,3 2,1 1,9 3,9 0,0 1,0 2,-1zm2 -44l-1 1c-1,2 -1,4 -2,5 0,1 1,3 2,4 0,-3 4,-10 1,-10zm3 -10l-1 3c0,0 0,0 0,0 0,0 1,-1 2,-3l-1 -1zm25 -88l-2 1c0,1 0,3 1,5 1,-2 1,-4 1,-6zm5 -26c-2,4 -2,7 -3,10 0,4 1,7 1,10l1 0c0,-7 1,-10 1,-19zm-3 -8c0,3 0,5 0,8 0,-3 1,-5 0,-8zm2 -15c-1,3 -2,8 -2,13 1,1 1,3 1,6 3,-13 -2,-8 5,-16 1,-6 -1,-6 -2,-10l-1 2 0 2 0 1c0,3 1,5 1,7 -1,-1 -1,-3 -2,-4zm2 -62c-2,2 -4,4 -5,7l0 1c0,3 1,7 1,10 1,13 1,26 3,35 2,-4 3,-9 4,-15 0,-2 -1,-2 -3,-2 0,0 0,0 0,0 0,0 0,0 0,0 0,0 -1,0 -1,0 0,-4 2,-4 3,-4 -1,-7 -2,-14 -2,-22 0,-3 0,-7 0,-10zm-1 -12l0 2 0 -2zm33 -45l0 0c-1,-7 -1,-17 -2,-17 0,0 0,0 0,1 -2,5 -3,15 2,17zm-7 -7l0 0 0 0 0 0 0 0zm-1 -28c1,6 1,11 0,16 0,2 1,4 1,6 3,-5 6,-20 0,-22zm-2 -15c-1,3 0,13 3,13 0,0 1,0 1,0 -1,-5 -2,-10 -4,-12zm1 -12c-1,2 -2,3 -2,5l0 3c1,-1 2,-4 2,-8zm-3 -14l0 0c-1,-2 -1,-3 -2,-4l0 2 2 2zm-12 -25c-3,0 -5,3 -4,5l2 3c1,1 2,2 3,3l1 2c1,1 2,2 3,4 1,0 2,-1 2,-4 0,0 0,0 0,0 -2,0 -5,-7 -3,-12l0 0 -2 0c0,0 0,0 0,0zm-2 -27l0 0c-1,-2 -1,-5 -2,-9 0,0 -1,0 -1,0 -2,0 -1,3 0,6l2 3 1 0zm-9 -31l-1 3c2,6 2,12 4,18 1,-2 2,-4 1,-9 -5,-1 -1,0 -4,-12zm2 -5c0,0 0,1 0,3 4,1 1,7 3,10l4 -1c1,-7 -1,-12 -4,-16l-2 2c2,2 3,4 3,6 0,0 0,0 0,0 0,0 -1,-1 -2,-2 -1,-1 -1,-2 -2,-2zm-3 6l0 0 0 -3 0 2 0 1zm-4 -25l0 0c0,-1 0,-3 -1,-4 -3,-2 -3,-4 -2,-4 1,0 3,2 4,6l2 -3c0,-2 0,-4 -1,-6 -2,0 -4,-1 -4,-3 -1,-5 -3,-8 -7,-10l-2 0 -1 2c-1,4 3,6 4,9 0,3 -2,6 -3,9l2 4c3,0 7,0 10,1zm6 -4l0 0c0,-3 3,-3 0,-9l-3 2 0 0c1,3 2,7 3,7zm-55 -89l0 0c-2,-3 -5,-7 -7,-9 0,1 0,3 0,4 1,1 2,3 2,5 0,0 1,0 1,0 1,0 2,0 3,1zm-49 -41l-1 0c-3,2 -4,6 -1,9 4,5 7,6 10,6 1,0 1,0 2,0 -3,-6 -7,-11 -10,-15zm-6 -6l0 0c-2,-3 -5,-5 -8,-7 1,4 4,6 8,7zm-43 -36l0 0c-2,-2 -4,-4 -6,-5l0 0c0,4 3,5 6,5zm-50 -118c3,6 5,12 9,13l0 -1 -2 -3c-3,-3 -5,-6 -7,-9zm-67 -14l0 0 -1 -1 -2 0 3 1zm13 -54c0,0 -1,0 -1,0 0,1 5,7 7,7 0,0 0,0 1,0 -1,-3 -3,-7 -6,-7zm-704 -23c-5,0 -11,1 -17,2 -8,1 -16,3 -25,6 1,2 3,3 5,3 1,0 3,-1 5,-2 2,-2 5,-2 8,-2 1,0 1,0 2,0 1,0 1,0 2,0 4,0 7,0 10,-4 1,-1 3,-1 4,-1 0,0 0,0 1,0 0,0 0,0 0,0 3,0 4,-1 5,-2zm34 -3c1,3 3,5 5,5 1,0 2,0 4,-1 3,-2 5,-3 6,-6 -4,0 -7,0 -11,0 -1,2 -2,3 -4,3l0 -3c-6,0 -12,1 -18,3l0 1c2,3 4,4 6,4 2,0 4,-1 7,-2 1,-1 3,-1 4,-2zm247 2l-3 1c0,0 1,1 2,1 0,0 0,0 1,0l0 -1zm-205 -7l0 0 -3 -1c1,1 2,1 3,1zm-16 -3c-4,0 -8,1 -12,3 1,0 3,0 4,0 1,0 1,0 2,0l2 0c3,0 6,-1 7,-2 -1,0 -2,0 -3,0zm69 1408c0,0 -1,0 -1,0 0,0 0,0 0,0 0,0 1,0 1,0zm439 -25c0,0 0,0 0,0 0,0 0,0 0,0zm-670 -57c0,0 0,-1 0,-1 0,0 0,1 0,1z"/>
    <path class="fil0" d="M451 172c1,-2 21,-8 24,-13 7,1 -20,13 -24,13z"/>
    <path class="fil0" d="M990 20c-7,0 -15,-1 -23,-3 -8,-1 -16,-3 -22,-3 -1,0 -1,0 -2,0 -3,-1 -4,-4 -6,-5 0,0 0,0 0,0 -2,0 -2,2 -2,3 -12,-1 -20,-8 -31,-8 -2,0 -3,0 -5,1 1,2 11,1 13,3 -1,0 -2,0 -3,0 -2,0 -3,0 -5,-1 -2,0 -3,-1 -5,-1 -1,0 -3,0 -5,1 -2,-4 0,-3 -2,-7 1,0 2,0 3,0 15,0 14,2 36,4 -6,3 9,3 10,4 0,0 0,0 0,0 0,0 0,0 0,0 0,-2 1,-2 3,-2 3,0 7,2 10,4 6,0 -3,-3 3,-4 7,4 25,2 21,7 3,0 4,1 4,2 4,0 -1,-4 3,-4 1,0 2,0 4,1 -8,3 5,4 8,6 -2,1 -5,1 -8,1z"/>
    <path class="fil0" d="M1176 181c-4,0 -11,-4 -17,-6 0,0 1,0 2,0 4,0 12,4 15,6 0,0 0,0 0,0z"/>
    <path class="fil0" d="M1238 182c-4,0 -11,-3 -13,-6 0,0 0,0 0,0 2,0 4,1 6,2 2,1 5,2 6,2 1,0 1,0 2,-1 1,2 0,2 -1,2z"/>
    <path class="fil0" d="M1301 148c-1,0 -2,-1 -3,-1 -1,-1 -2,-1 -3,-1 0,0 0,0 0,0 3,-3 -6,-11 -13,-12 0,0 1,0 1,0 6,0 20,9 29,12 -2,0 -3,0 -4,0 0,0 -1,0 -1,0 0,0 -1,0 -1,0 -2,0 -3,0 -4,-2 -1,0 -1,-1 -2,-1 -2,0 -1,4 1,5 0,0 0,0 -1,0zm-6 -2c0,0 0,0 1,0 0,0 0,0 -1,0z"/>
    <path class="fil0" d="M1312 265c0,0 -1,-1 -2,-1 -1,-1 -2,-1 -3,-1 -1,0 -1,0 -1,2 -5,-3 -9,-6 -6,-8 1,1 1,1 1,2 1,0 1,0 2,0 1,0 2,0 3,-1 1,1 1,1 0,1 0,0 -1,0 -1,0 -1,4 2,3 6,6 1,1 1,2 1,2z"/>
    <path class="fil0" d="M1356 304c-6,-7 -8,-5 -13,-9 -1,1 1,2 2,3 -11,-2 -22,-19 -31,-30 1,0 1,-1 2,-1 2,0 4,1 5,1 -2,7 24,24 31,27 3,3 6,6 4,8z"/>
    <path class="fil0" d="M1533 381c-2,-3 -5,-13 -8,-13 -1,0 -1,0 -2,1 -1,-2 0,-3 1,-4 -3,-3 -6,-5 -10,-9 0,-4 -1,-8 -2,-12 -1,-1 -1,-1 -1,-1 0,0 0,1 0,2 0,1 0,2 -1,2 0,0 0,0 0,0 0,-7 -7,-5 -8,-6l1 -2 -1 2c-1,7 9,24 20,32 -4,1 -3,0 -4,3 2,-10 -16,-13 -18,-27 -13,-11 -27,-26 -40,-42 -7,-8 -13,-16 -20,-23 -3,-4 -7,-7 -10,-10 -3,-3 -7,-6 -10,-8 1,0 1,0 2,0 0,0 1,0 1,0 0,0 1,0 1,0 1,0 1,0 2,0 -4,-5 -6,-4 -10,-8 0,-8 -22,-20 -25,-27 3,4 7,6 10,6 0,0 1,0 1,0 10,10 12,14 24,22 -1,-3 1,-4 -2,-8 2,0 3,2 9,6 -2,5 0,10 3,16 5,5 15,5 15,12 1,0 1,0 2,0 2,0 4,-1 6,-3 5,7 8,3 10,9 2,-1 1,-4 -2,-7 0,0 0,0 1,0 1,0 3,3 5,5 2,3 4,5 5,5 0,0 0,0 1,0 1,2 1,2 0,2 -1,0 -6,-3 -7,-5 0,3 -2,4 1,8 1,1 1,1 2,1 1,0 2,-2 3,-2 4,6 7,12 11,12 1,0 2,0 2,-1 4,12 15,19 20,29 1,0 1,0 2,0 1,0 1,-1 0,-4 6,2 8,11 10,11 1,2 0,3 -1,4 4,5 4,8 7,8 0,0 1,0 1,0 -1,5 6,15 6,20zm-58 -64c1,0 2,2 4,3 1,2 3,3 4,3 0,0 1,0 1,-1 -3,-4 -6,-6 -8,-7 -1,1 -3,2 -1,4 0,-1 1,-1 1,-1z"/>
    <path class="fil0" d="M1390 344c-1,-2 -2,-4 0,-5 -3,-3 -4,0 -7,-4 0,-3 1,-6 -2,-10l4 1c-2,6 8,11 5,18z"/>
    <path class="fil0" d="M1611 551c-4,-6 2,-4 -3,-11 3,0 6,7 10,7 0,0 1,0 1,0 0,1 -1,2 -1,2 -1,0 -2,-1 -3,-1 -1,-1 -2,-1 -3,-1 -1,0 -1,1 -1,4z"/>
    <path class="fil0" d="M1615 604c0,0 -1,-1 -2,-2 -1,-1 -2,-2 -2,-2 0,0 0,0 0,0 0,-3 2,-5 -1,-11 1,-1 1,-1 2,-1 1,0 2,1 3,1 1,5 -6,6 0,13 0,2 0,2 0,2z"/>
    <path class="fil0" d="M1555 1347c2,-3 5,-6 7,-6 1,0 2,1 1,3 1,1 -4,0 -8,3z"/>
    <path class="fil0" d="M1473 1462c0,-6 6,-9 12,-15 -1,3 -1,4 0,4 2,0 8,-4 11,-7 0,0 0,0 0,0 3,0 -12,10 -13,15 0,-2 0,-3 -1,-3 -2,0 -6,4 -9,6z"/>
    <path class="fil0" d="M1558 1544c1,-9 1,-9 1,-11 -2,-1 5,-7 7,-10 4,4 -2,13 -8,21z"/>
    <path class="fil0" d="M1278 1648c-1,-1 10,-8 7,-8 0,0 -1,0 -2,0 0,-2 3,-1 6,-3 -1,2 -2,3 -2,3 0,0 2,-1 5,-3 2,1 -9,9 -14,10z"/>
    <path class="fil0" d="M1029 1745c-5,-5 11,-2 21,-6 -1,-1 -2,-1 -3,-1 -1,0 -2,0 -3,0 -1,0 -2,0 -3,0 0,0 -1,0 -1,0 1,-2 3,-2 6,-2 0,0 0,0 1,0 0,0 0,0 1,0 3,0 7,0 12,-3 1,0 1,0 1,0 1,0 -15,7 -16,10 -1,-1 -5,-1 -8,-1 -3,0 -6,1 -7,2z"/>
    <path class="fil0" d="M991 1754c-9,-2 -1,-8 -1,-13 3,0 7,-2 10,-2 1,0 2,0 1,2 -12,2 -13,8 -7,10 -1,2 -5,2 -3,4z"/>
    <path class="fil0" d="M922 1767c1,-2 5,-3 8,-3 1,0 2,0 3,0 -5,-4 7,-4 14,-9l1 5 9 -1c1,-4 -8,-5 -4,-7 0,0 0,0 1,0 6,0 1,5 7,6 -4,0 -4,2 -4,3 0,0 -1,0 -1,0 -13,0 -17,4 -33,5z"/>
    <path class="fil0" d="M873 1819c3,-6 -8,-3 -12,-5 1,-1 3,-1 5,-1 8,0 20,5 7,6z"/>
    <path class="fil0" d="M778 1758c-2,-1 -4,-2 -6,-2 0,0 1,0 1,0 6,0 28,2 5,2z"/>
    <path class="fil0" d="M756 1765c-2,-1 -5,-1 -8,-1 -2,0 -4,0 -5,1 -4,-2 9,-1 2,-5 5,-1 10,-2 17,-2 3,0 6,0 9,1 -5,2 3,4 4,7 -1,0 -2,0 -3,0 -6,0 -13,-1 -14,-4 -3,1 1,2 -2,4z"/>
    <path class="fil0" d="M679 1757c-5,-2 -6,-3 -4,-6 -9,-1 -10,0 -15,-3 -3,0 -5,1 -5,3 -6,-1 -11,-2 -17,-3 -5,-1 -11,-3 -16,-4 -10,-2 -20,-4 -29,-6 -18,-4 -36,-6 -51,-10 7,-1 -6,-4 -2,-8 -2,0 -4,0 -6,-1 0,2 8,4 5,6 -9,-5 -14,-6 -16,-13 0,0 1,0 1,0 1,0 3,1 4,2 1,1 3,2 4,2 1,0 1,-1 2,-3 8,3 15,5 22,8 7,2 14,4 21,6 13,4 26,7 39,10 25,7 53,11 90,17 1,0 2,0 3,0 3,0 2,-2 4,-3 1,2 10,1 10,4 3,0 7,-1 7,-4 0,0 1,0 1,0 2,0 4,0 7,0 2,0 5,0 7,0 1,0 2,0 3,0 -5,2 -15,4 -27,5 -3,0 -6,0 -9,0 -10,0 -21,-1 -30,-2 0,0 0,0 0,0 -2,0 -2,2 -2,3z"/>
    <path class="fil0" d="M592 1640c-1,0 -1,0 -2,-1 -3,-1 -5,-2 -7,-2 -2,0 -3,1 -5,2 -4,-5 -9,-3 -14,-4 -2,-1 -3,-2 -2,-3l2 -2 0 0c-5,-2 -11,-4 -16,-6 4,-2 -5,-8 -15,-12l0 2 -2 3c-1,-1 -1,-3 -1,-4l1 -2c-7,-3 -14,-5 -19,-5 -1,0 -2,0 -3,1 -6,-2 -3,-4 -6,-6 -1,0 -1,0 -2,0 -1,0 -2,0 -3,0 -1,0 -2,0 -3,0 -2,0 -3,0 -6,-1 2,0 3,-1 3,-3 -8,-2 -9,-10 -14,-15 -1,0 -1,1 -2,1 -3,0 -7,-3 -10,-5 1,0 2,0 2,0 5,0 -3,-5 -9,-7 11,2 16,0 27,5 -1,1 -4,0 -5,1 4,5 13,11 21,13 2,2 1,5 -2,5 0,0 0,0 1,0 3,0 8,2 13,5 3,1 6,2 9,2 2,0 3,0 4,-1 4,2 6,5 12,7 -1,1 -1,1 -2,1 -2,0 -4,-4 -9,-5 -2,0 -3,1 -5,2 11,4 24,9 39,14 7,3 14,5 22,8 2,1 4,1 5,1 2,-1 4,-1 6,-3 0,0 0,0 0,0 1,0 2,3 2,5 2,1 5,1 7,2 0,1 -1,1 -2,1 -1,0 -3,0 -5,-1l0 3 1 0 -1 0c-1,2 -2,3 -4,3z"/>
    <path class="fil0" d="M536 1667c-10,-7 -19,-8 -29,-9 1,0 5,0 7,0 3,0 5,-1 -2,-3 12,2 17,5 29,8 -1,1 -2,1 -3,1 -1,0 -2,0 -4,-1 1,1 1,2 1,4z"/>
    <path class="fil0" d="M485 1648c-1,0 -7,-6 -4,-8 1,2 4,3 7,4 0,1 -1,1 -2,1 0,0 -1,0 -1,0 0,0 -1,0 -1,0 -1,0 -1,0 1,2 0,1 0,1 0,1z"/>
    <path class="fil0" d="M463 1668c-1,-6 -23,-11 -18,-17 4,1 3,3 2,5 8,5 14,7 19,10 0,0 0,1 -1,1 0,0 -1,0 -2,0l-1 2z"/>
    <path class="fil0" d="M384 1709c-13,-5 -18,-9 -24,-9 -1,0 -1,0 -2,0 -6,-3 -5,-6 -11,-9 5,2 11,1 17,6 1,-2 -1,-3 0,-5 7,4 7,6 14,8 0,-2 -2,-3 -5,-5 1,0 1,0 2,0 1,0 3,0 4,1 1,0 3,1 4,1 1,0 2,0 2,0 4,2 -2,4 -4,4 0,0 0,0 0,0 2,3 4,5 9,8 0,0 0,0 -1,0 0,0 -1,0 -2,0 -1,0 -1,0 -2,0 -1,0 -2,0 -2,1z"/>
    <path class="fil0" d="M442 1501c-1,0 -3,-4 -7,-5 0,-4 1,-3 4,-4 0,3 -3,4 3,8 0,0 0,0 -1,0z"/>
    <path class="fil0" d="M1396 219c-7,-4 -12,-10 -17,-14 -5,-4 -10,-8 -14,-10 -3,-4 -3,-8 -7,-12 -6,-2 -9,-1 -17,-7 2,-1 2,-3 -2,-5 1,0 3,0 4,-1 2,3 2,5 3,7 6,0 14,6 20,6 4,3 2,5 0,7 3,1 4,2 3,4 7,2 10,6 17,9 2,5 1,9 10,16z"/>
    <path class="fil0" d="M542 1764c-3,0 -6,0 -9,-1 -27,-6 -49,-31 -70,-32 -6,-4 -27,-14 -35,-22 4,-2 1,-2 3,-6 6,2 15,7 19,7 1,0 2,-1 3,-2 3,2 4,4 5,6 0,-1 0,-1 1,-1 1,0 1,0 2,0 1,0 2,0 2,0 1,0 2,0 3,-2 1,5 14,8 12,13 4,1 7,1 10,1 7,0 11,-2 11,-9 12,0 24,5 35,10 5,3 10,6 15,9 4,3 8,6 11,8 3,12 -5,20 -17,20z"/>
   </g>
   <path class="fil1" d="M1318 975c-4,-8 -13,-12 -22,-10l-196 43 -95 -53c49,-82 83,-167 83,-236 0,-126 -102,-228 -228,-228 -126,0 -228,102 -228,228 0,68 32,151 78,231l-45 16c-3,1 -6,3 -8,5l-280 280c-7,7 -8,17 -3,26 4,6 10,10 17,10 2,0 4,0 7,-1l203 -71 205 114c3,2 6,2 10,2 1,0 2,0 2,0 1,0 2,0 3,0l206 -45c4,-1 8,-3 10,-6l276 -278c6,-7 8,-17 4,-25m-255 59l-248 249 -175 -97 137 -137c22,30 46,58 69,82 4,4 9,6 15,6l0 0c6,0 11,-3 15,-7 37,-42 75,-90 108,-141l80 45 0 0zm99 27c-3,0 -6,0 -8,-1 -3,-1 -4,-4 -3,-7l4 -4c1,0 1,0 2,0 2,0 5,1 5,3 1,3 1,5 1,8l1 0 0 1 -1 0 0 -1zm-302 -529c103,0 187,84 187,187 0,66 -37,152 -88,233 0,0 0,0 0,0l0 0c-30,48 -65,94 -99,134 -95,-105 -186,-260 -186,-367 0,-37 10,-71 29,-100m15 -20c34,-41 86,-67 143,-67m-176 470l48 -17c6,10 13,20 19,29l-157 157 -123 43 55 -55 2 -1c0,0 0,-1 0,-1l156 -156 0 0zm330 241l-131 29 225 -225 129 -28 -209 211 0 0c-1,0 -3,0 -4,0 -2,0 -4,0 -6,0l0 0c-2,0 -5,0 -7,0 -2,0 -4,0 -6,0 -1,0 -3,3 -4,4 0,2 1,5 2,5 4,1 8,2 12,2l0 0 -1 1 0 0zm-27 -526c0,-70 -57,-127 -127,-127 -70,0 -127,57 -127,127 0,70 57,127 127,127 25,0 49,-7 69,-20m24 -20c21,-23 35,-53 35,-87m-212 0c0,-47 39,-86 86,-86 47,0 86,39 86,86 0,47 -39,86 -86,86 -47,0 -86,-38 -86,-86z"/>
  </g>
 </g>
</svg>
