<?xml version="1.0" encoding="UTF-8" standalone="no"?>
<!-- Created with Inkscape (http://www.inkscape.org/) -->

<svg
   version="1.1"
   id="svg2"
   width="256"
   height="256"
   viewBox="0 0 817.70081 1146.5197"
   xmlns="http://www.w3.org/2000/svg"
   xmlns:svg="http://www.w3.org/2000/svg">
  <defs
     id="defs6">
    <clipPath
       clipPathUnits="userSpaceOnUse"
       id="clipPath16">
      <path
         d="M -9,-9 H 605 V 851 H -9 Z"
         clip-rule="evenodd"
         id="path14" />
    </clipPath>
  </defs>
  <g
     id="g8"
     transform="matrix(1.3333333,0,0,-1.3333333,12,1134.5197)">
    <g
       id="g10">
      <g
         id="g12"
         clip-path="url(#clipPath16)">
        <path
           d="m 204.7884,668.6841 c -1.2093,-0.6318 -3.3029,-0.7582 -8.9167,-0.4512 l -7.3281,0.3789 -4.7834,-2.4188 c -4.7109,-2.4185 -4.9096,-2.4908 -14.3317,-2.8698 -6.3715,-0.3248 -10.6314,-0.8302 -12.7432,-1.5885 -8.0322,-2.7436 -15.3425,-8.7182 -20.7575,-16.8046 l -3.2491,-4.8373 10.3246,-0.1985 10.3788,-0.1987 3.2491,2.2201 c 6.6243,4.5848 12.4724,5.2889 24.8907,2.9965 9.9278,-1.8411 11.3896,-1.7869 14.5846,0.758 1.4621,1.1551 4.0793,3.0504 5.794,4.2599 1.7869,1.1551 4.5124,3.3752 6.1733,4.9638 l 3.0503,2.9239 2.9962,-0.8303 c 6.8049,-1.9672 9.9275,-1.4621 12.2922,1.8411 1.6605,2.2924 1.7147,3.7545 0.1984,2.4188 -1.7146,-1.5344 -5.0901,-3.0503 -6.552,-3.0503 -0.7582,0 -2.2203,0.4512 -3.249,1.0105 -3.5017,1.787 -5.2166,1.336 -10.2524,-2.4908 -5.1624,-3.8806 -11.7144,-7.4545 -13.8263,-7.4545 -1.2815,0 -5.1624,2.3643 -5.1624,3.1226 0,0.1984 1.2092,0.379 2.7436,0.4513 3.4475,0.1261 9.1696,2.9962 14.5123,7.2561 2.2201,1.8411 4.5125,3.5017 4.9637,3.8265 0.8303,0.4513 0.758,0.8844 -0.2528,3.1226 -1.2093,2.7978 -2.0937,3.0504 -4.7832,1.5886 v 0 z m -7.96,-6.6245 1.9134,-0.4513 -3.5016,-1.7147 c -3.3032,-1.6605 -3.7004,-1.7147 -5.7402,-0.8844 l -2.1659,0.8844 2.7978,1.7147 c 1.5885,0.9567 3.3032,1.5344 3.8267,1.336 0.5052,-0.2529 1.8411,-0.6319 2.8698,-0.8847"
           style="fill:#000000;fill-opacity:1;fill-rule:evenodd;stroke:none"
           id="path18" />
        <path
           d="m 279.8586,666.2653 c -2.7436,-2.5449 -7.6351,-4.1335 -14.2055,-4.657 -4.4584,-0.379 -4.5845,-0.379 -7.8877,-3.7542 -2.6172,-2.7437 -4.3863,-3.8268 -8.4113,-5.415 -12.8698,-4.9097 -19.9272,-13.303 -22.6709,-26.7503 -0.8844,-4.5845 -1.0108,-14.0788 -0.1264,-14.9091 0.2528,-0.2529 13.5014,-4.1335 14.0068,-4.1335 0.1987,0 0.5054,3.3752 0.6319,7.5087 0.4512,10.9565 2.9239,15.8479 9.6205,19.2234 3.5739,1.7867 4.3322,1.9131 10.7577,1.9131 5.0902,0 7.4549,0.2529 8.8447,1.0109 1.0831,0.5054 4.9096,3.7003 8.5377,7.0035 5.9204,5.4148 6.7507,6.3715 7.7615,9.6747 l 1.1551,3.628 5.0902,0.3249 c 2.7978,0.1987 5.7399,0.7041 6.4979,1.0831 1.4079,0.8303 3.7003,5.9204 3.249,7.2561 -0.1264,0.4513 -0.8844,-0.2528 -1.7147,-1.5344 -2.22,-3.628 -3.5739,-4.2596 -8.7905,-4.2596 -5.1621,0 -5.1621,0 -8.4654,-6.6246 -1.7146,-3.4474 -7.5809,-8.6638 -12.617,-11.3351 l -2.7436,-1.4621 -1.2816,1.5341 c -1.3356,1.5885 -1.0828,2.6172 0.6319,2.6172 1.4621,0 6.5523,3.4478 9.1695,6.1191 1.8411,1.9673 8.7179,13.2486 8.7179,14.2053 -0.072,0.4513 -2.9962,3.8806 -3.3029,3.8806 -0.1264,0 -1.2095,-1.0105 -2.4911,-2.1659 v 0 z m -6.2994,-11.209 c -1.3357,-2.4908 -4.7835,-4.4583 -8.7905,-4.9638 -2.166,-0.3248 -3.953,-0.379 -3.953,-0.1987 0,0.2529 0.7039,1.4621 1.5886,2.7978 1.7869,2.6173 3.4475,3.1768 10.0536,3.5739 1.5886,0.0723 1.715,-0.072 1.0831,-1.2092 z"
           style="fill:#000000;fill-opacity:1;fill-rule:evenodd;stroke:none"
           id="path20" />
        <path
           d="m 381.2454,665.6335 c -2.4185,-2.545 -10.5049,-4.8373 -17.0572,-4.8373 -3.2491,0 -4.8373,-0.7039 -7.581,-3.3033 -1.8411,-1.7146 -2.6714,-1.9675 -9.6749,-2.7978 -14.7648,-1.7146 -23.7538,-6.8768 -31.4612,-18.2664 -6.0466,-8.9167 -8.5377,-17.4543 -11.0103,-37.6886 -1.8411,-15.162 -3.1227,-22.7971 -4.5848,-27.3818 -3.8267,-11.9129 -12.7434,-21.3891 -23.1763,-24.5841 -6.0466,-1.8411 -13.8804,-1.4079 -24.6382,1.2816 -4.3319,1.0831 -8.1587,1.9675 -8.5377,1.9675 -1.2815,0 -0.2525,-7.8338 1.5886,-11.4619 2.6172,-5.415 7.0033,-7.7615 16.5518,-8.9708 17.2559,-2.1659 36.1,6.4982 46.0995,21.0824 6.8049,9.9998 9.4224,19.2232 11.6603,41.0638 2.2924,22.3458 5.3431,32.165 12.2199,39.0963 3.9532,3.9529 8.6641,6.3717 13.5014,6.8771 2.094,0.1985 7.6354,-0.2528 14.0791,-1.1551 12.2199,-1.6608 10.5772,-2.0398 18.5375,4.5125 7.8335,6.4256 9.1692,7.8877 9.1692,9.9995 0,1.0108 0.4513,2.4911 1.0109,3.2491 0.8302,1.2092 1.5343,1.4079 4.7831,1.4079 5.5415,0 7.9603,1.2093 9.5485,4.7832 1.715,3.9529 1.408,5.9204 -0.5054,2.7437 -1.9672,-3.4475 -3.9529,-4.3861 -8.7179,-4.5125 -4.8376,-0.1264 -6.2453,-1.1551 -8.3393,-5.8663 -1.5882,-3.5016 -4.5124,-6.4259 -9.6205,-9.6749 -4.4583,-2.8698 -6.8048,-3.303 -8.1587,-1.4077 -1.0108,1.4621 -0.9567,1.4621 1.6606,2.2924 3.249,0.9564 8.9708,4.7831 10.5052,7.0755 0.5774,0.9567 2.4908,4.0071 4.1335,6.7507 l 3.0503,5.0902 -1.408,1.5882 c -0.8302,0.8845 -1.5882,1.8411 -1.7869,2.166 -0.2526,0.2528 -1.0108,-0.2526 -1.8411,-1.0828 v 0 z m -7.7616,-12.2199 c -1.5341,-1.8411 -4.7109,-3.0504 -8.9166,-3.4475 l -4.2596,-0.3248 1.1551,1.5885 c 2.2924,3.2488 3.3752,3.7542 7.9599,3.9529 4.6571,0.1984 5.4151,-0.1264 4.0794,-1.787 v 0 z"
           style="fill:#000000;fill-opacity:1;fill-rule:evenodd;stroke:none"
           id="path22" />
        <path
           d="m 294.9483,632.7102 c -10.3788,-4.2055 -16.4977,-11.588 -19.8009,-23.8079 -2.7978,-10.4508 -5.5414,-14.3317 -12.2918,-17.6349 -4.0794,-2.0395 -4.5128,-2.0937 -11.2635,-2.0395 -6.4256,0.0723 -8.339,0.4512 -23.3748,4.3319 -9.0428,2.2924 -16.5518,4.2057 -16.7502,4.2057 -0.1987,0 -0.3248,-3.8264 -0.3248,-8.5376 0,-7.6351 0.1261,-8.5918 1.1551,-8.9167 2.7436,-0.8303 30.306,-6.1191 35.1434,-6.7507 15.2883,-1.9675 28.591,3.7001 36.3526,15.5409 2.9962,4.5848 4.4583,9.4221 6.2994,20.7035 1.787,10.8841 3.1768,15.4148 6.3717,20.3062 1.408,2.166 2.2924,3.9529 2.0396,3.8809 -0.2526,0 -1.8411,-0.5777 -3.5737,-1.2818 v 0 z"
           style="fill:#000000;fill-opacity:1;fill-rule:evenodd;stroke:none"
           id="path24" />
        <path
           d="m 77.0485,618.6314 c 2.6714,-2.9243 6.9494,-7.6351 9.4944,-10.5052 l 4.5847,-5.1622 41.5871,-0.0723 41.5151,-0.0723 v -42.8507 -42.8505 l 10.7036,-7.3284 c 5.8663,-4.0794 11.0106,-7.581 11.4619,-7.8339 0.5777,-0.379 0.758,11.9673 0.758,60.6844 v 61.1895 H 134.6822 72.157 l 4.9096,-5.2166 z"
           style="fill:#000000;fill-opacity:1;fill-rule:evenodd;stroke:none"
           id="path26" />
        <path
           d="m 372.8341,623.2161 c -14.4581,-1.3357 -25.5948,-9.3679 -32.165,-23.2486 -2.87,-6.1189 -4.9096,-13.8263 -7.5809,-28.9701 -2.7437,-15.5412 -6.4982,-24.5843 -13.8807,-33.7535 -6.2453,-7.7074 -14.5843,-13.1766 -27.3096,-17.8878 -7.8338,-2.8698 -11.3354,-4.9637 -15.5412,-9.0969 -3.5736,-3.5739 -6.7507,-8.917 -8.2125,-13.7543 -0.4513,-1.4621 -0.4513,-1.5341 1.0108,-0.5054 9.6746,6.2994 18.9161,10.4511 31.4612,14.2597 10.5049,3.1768 15.1619,5.0899 20.3782,8.4112 5.7399,3.6281 11.2632,9.2957 15.7938,16.1728 6.6784,9.9998 8.7905,16.0464 11.9673,34.1867 1.0829,6.1189 2.6173,12.8696 3.3752,15.0355 4.2058,11.6603 11.6604,18.2126 22.7971,20.0537 3.6281,0.6319 5.7402,0.5777 11.9132,-0.2525 4.0793,-0.5777 11.6603,-1.0109 16.8046,-1.0109 5.1622,0 9.3679,-0.1987 9.3679,-0.3793 0,-0.2525 -1.0108,-1.5341 -2.2201,-2.8698 -2.3646,-2.6713 -4.7111,-6.8771 -6.6787,-12.2921 -4.3319,-11.588 -15.0355,-16.4254 -27.5802,-12.5447 -2.2924,0.7041 -5.0902,1.7146 -6.1192,2.2923 -1.0828,0.5055 -2.2923,0.9567 -2.7433,0.9567 -0.8306,0 -5.4151,-13.7542 -4.7835,-14.3858 0.7583,-0.7583 18.6639,-5.3427 22.3461,-5.7399 7.3823,-0.7582 15.9199,2.0937 22.7971,7.6352 3.5739,2.8697 5.415,5.1621 15.3425,18.8441 5.2886,7.3284 15.5409,19.8009 25.7213,31.2627 3.628,4.0791 6.5522,7.581 6.5522,7.8336 0,0.5777 -76.2253,0.3248 -82.8496,-0.2526 v 0 z"
           style="fill:#000000;fill-opacity:1;fill-rule:evenodd;stroke:none"
           id="path28" />
        <path
           d="M 153.2197,558.7775 V 531.197 l 2.4185,-1.7147 c 1.2818,-0.9567 3.1229,-2.3646 4.1335,-3.1226 l 1.7149,-1.3357 v 30.6309 30.6309 h -4.1334 -4.1335 z"
           style="fill:#000000;fill-opacity:1;fill-rule:evenodd;stroke:none"
           id="path30" />
        <path
           d="m 458.5357,572.3331 c -0.5777,-3.5739 -3.2491,-5.794 -7.0036,-5.794 -4.1335,0 -5.5411,-1.6608 -7.9599,-9.2418 -2.3647,-7.2561 -6.1189,-15.5951 -7.0756,-15.5951 -0.3249,0 -0.9567,0.7038 -1.3357,1.5883 -0.6318,1.3356 -0.379,2.2923 1.5883,6.4981 1.2815,2.7437 2.9965,7.4545 3.8267,10.4511 0.8844,3.0503 1.9131,6.173 2.3644,6.9491 0.3793,0.758 0.6319,1.408 0.5054,1.4621 -0.1261,0.0723 -1.0828,0.9567 -2.1659,1.9134 l -1.9675,1.7867 -1.787,-2.6173 c -1.0828,-1.5882 -4.0793,-4.079 -7.581,-6.3714 -8.5918,-5.6679 -8.6638,-5.7399 -9.3679,-7.509 -0.379,-0.8844 -1.0109,-4.386 -1.5341,-7.7615 -0.8844,-5.9925 -0.9567,-6.1189 -3.8809,-8.7903 -1.9673,-1.7869 -4.0794,-2.9962 -6.4979,-3.7003 -5.5415,-1.6605 -9.2418,-0.8844 -19.2234,3.8268 -12.4183,5.9204 -13.8263,6.2994 -22.7248,6.6243 -7.581,0.2525 -7.7616,0.2525 -8.6641,-1.2093 -1.5883,-2.7437 -9.368,-16.9311 -9.368,-17.2559 0,-0.1987 1.9134,0.1984 4.3319,0.8844 6.1733,1.7147 13.5015,2.0939 18.9165,0.9567 2.4911,-0.5054 7.7615,-2.4188 11.7867,-4.2599 10.8301,-4.8373 15.4148,-5.9925 23.2484,-5.5412 7.509,0.379 10.451,1.3357 16.1728,5.2886 2.2923,1.5883 6.7507,4.7109 9.9275,6.8049 l 5.6678,3.9529 2.9963,7.9599 c 1.6605,4.3864 3.5016,10.1263 4.1334,12.7435 1.4621,6.6784 1.5883,6.8048 5.7941,7.3281 6.3717,0.7583 8.4653,2.5452 8.4653,7.13 0,3.7001 -1.0108,4.7109 -1.5882,1.5341 v 0 z m -24.9633,-15.7938 c -0.5054,-3.3032 -1.5883,-5.1624 -4.5848,-8.1587 -2.5449,-2.4908 -2.6172,-2.4908 -2.6172,-0.8302 0,0.8844 -0.1984,2.4908 -0.379,3.5016 -0.2526,1.2815 -0.0723,2.166 0.5054,2.6714 2.3647,1.9675 6.6243,5.0901 7.0036,5.0901 0.2525,0.0723 0.2525,-1.0108 0.072,-2.2923 z"
           style="fill:#000000;fill-opacity:1;fill-rule:evenodd;stroke:none"
           id="path32" />
        <path
           d="m 99.4124,566.7375 c -4.5844,-1.0108 -7.3822,-4.1335 -8.2848,-9.2415 l -0.4513,-2.3647 3.7545,1.0109 c 5.4692,1.4079 8.2849,3.249 10.4508,6.7507 1.0831,1.7147 1.8411,3.1768 1.715,3.3032 -0.4513,0.379 -6.0469,0.8303 -7.202,0.5054 v 0 z"
           style="fill:#000000;fill-opacity:1;fill-rule:evenodd;stroke:none"
           id="path34" />
        <path
           d="m 211.1601,554.8966 c 0,-12.0393 1.5886,-20.1798 5.415,-27.8331 0.8303,-1.5882 3.7545,-6.3714 6.6243,-10.7036 6.4259,-9.9275 7.888,-13.5014 7.9603,-20.1798 0.072,-8.4113 -3.5019,-14.2053 -10.2526,-16.6241 -7.7072,-2.7437 -14.2053,-0.379 -37.6342,13.682 -6.8772,4.1335 -16.3712,9.6746 -21.0101,12.4183 -4.7112,2.6714 -9.9998,5.8663 -11.7868,7.0755 -1.7869,1.2096 -3.4475,1.9676 -3.7003,1.7147 -0.6316,-0.7038 -1.8411,-6.8768 -1.8411,-9.6205 0,-4.2599 4.2057,-8.0864 19.4218,-17.382 19.1693,-11.7868 39.0963,-21.4617 47.941,-23.3748 10.18,-2.1662 19.2231,0.8303 26.371,8.7902 5.415,5.9928 7.4545,11.9671 7.5087,21.3894 0,9.9275 -2.2921,16.5518 -9.5482,27.9593 -2.1663,3.5019 -5.0361,8.4656 -6.2995,11.137 -2.2204,4.7832 -2.2924,4.9638 -2.2924,12.7973 0,4.3863 0.2526,8.9708 0.5055,10.2526 l 0.5774,2.2201 -6.173,1.4077 c -3.3755,0.8306 -7.3826,1.5885 -8.9708,1.8411 l -2.7978,0.3793 v -7.3826 0 z"
           style="fill:#000000;fill-opacity:1;fill-rule:evenodd;stroke:none"
           id="path36" />
        <path
           d="m 129.3395,543.6156 c -3.3755,-0.8306 -6.173,-1.0108 -11.5339,-0.7583 l -7.0036,0.3249 -4.2054,-4.1335 c -2.7437,-2.6172 -5.9928,-4.9638 -9.0973,-6.552 -2.6713,-1.408 -5.036,-2.7437 -5.1624,-2.9962 -0.2526,-0.3793 0.7582,-4.3864 1.408,-5.4692 0.0722,-0.1264 1.0831,0.2526 2.22,0.8844 1.8411,0.9567 3.1768,1.0109 9.8011,0.5774 10.3246,-0.6315 10.7039,-0.6315 14.0069,1.2816 1.5343,0.9567 3.3032,1.5885 3.8809,1.4621 0.8844,-0.1984 0.8302,-0.5054 -0.6319,-2.2201 -0.9567,-1.1551 -2.7436,-2.6714 -3.9529,-3.4475 -2.1659,-1.2815 -2.4908,-1.3357 -9.5485,-0.5777 -4.0071,0.379 -8.0864,0.5777 -9.0972,0.3248 -2.4185,-0.5054 -4.0794,-2.4185 -6.0466,-6.8768 l -1.5885,-3.6281 -4.5848,0.1262 c -4.2055,0.1987 -4.6568,0.0723 -5.6676,-1.4077 -0.6318,-0.8844 -1.3357,-2.2924 -1.5885,-3.1768 -0.4513,-1.4621 -0.3249,-1.4621 1.5885,0.5774 l 1.9675,2.094 4.5845,-0.4513 c 3.9532,-0.3249 4.7835,-0.6318 5.9927,-2.094 1.5886,-2.0395 2.6173,-1.4618 1.5886,0.8303 -1.0831,2.4188 -0.9567,3.8268 0.8302,7.3284 1.9131,3.7545 2.9963,4.1335 9.8011,3.5739 2.6714,-0.2525 6.6784,-0.5777 8.9708,-0.7579 l 4.1335,-0.3252 4.1335,3.3755 c 2.2924,1.8411 5.794,4.2599 7.8338,5.2886 l 3.6281,1.9134 v 8.1587 c 0,9.2415 0.6315,8.6638 -6.6787,6.8048 v 0 z m -10.6313,-7.6354 2.3643,-0.072 -2.2201,-1.9134 c -3.7544,-3.1768 -5.5955,-3.9529 -8.7182,-3.4475 l -2.7978,0.379 1.9675,2.4908 c 1.8411,2.3647 4.0794,3.3032 6.2453,2.7437 0.5054,-0.072 1.9134,-0.1985 3.1768,-0.1985 z"
           style="fill:#000000;fill-opacity:1;fill-rule:evenodd;stroke:none"
           id="path38" />
        <path
           d="m 362.9608,511.1436 c -12.3463,-2.6172 -28.9704,-16.1728 -36.2265,-29.4758 -5.3427,-9.8011 -3.1226,-21.0824 6.9494,-34.5115 2.4185,-3.1227 4.9638,-7.0036 5.794,-8.5918 1.8411,-3.7004 3.6281,-10.3788 3.3752,-12.7976 -0.1984,-1.787 -0.5774,-1.4621 -9.2415,6.8048 -9.6746,9.2418 -15.3425,16.2993 -18.9164,23.7538 l -2.166,4.5125 -1.5882,-2.8698 c -10.2526,-18.2126 -8.6641,-39.295 4.1332,-56.6771 11.6603,-15.7937 35.3962,-30.5586 43.681,-27.1292 1.0831,0.4513 2.4188,1.7147 2.9965,2.8701 1.1551,2.0936 1.1551,4.5124 -0.0723,10.9562 -0.5054,2.6713 2.0396,5.5955 6.1731,7.0758 3.0506,1.0828 3.1226,1.2093 3.1226,3.7001 0,4.4583 -1.5883,5.415 -9.0431,5.415 l -5.2886,0.0723 2.094,1.7869 c 4.9096,4.2055 12.996,6.8049 16.0463,5.1622 2.0398,-1.0828 2.4908,0 1.6606,4.2599 -0.6316,3.1768 -1.0109,3.7545 -4.2055,6.173 -3.9529,3.0507 -4.3863,4.0071 -2.6172,6.1733 1.0828,1.3357 1.8411,1.5341 6.2452,1.7147 4.332,0.1984 5.8663,-0.0723 11.2091,-1.787 9.4943,-3.1768 9.2956,-3.7003 4.9637,15.2884 -4.1334,18.1403 -4.0793,19.4939 0.5775,26.8041 2.2203,3.4478 2.2923,4.0794 0.6318,15.2164 -0.7038,4.7109 -1.2816,10.8298 -1.2816,13.5014 v 4.9096 l -4.2599,2.3644 c -7.2017,4.0793 -11.209,5.415 -16.9307,5.6679 -2.8701,0.1261 -6.3717,0 -7.8339,-0.3252 v 0 z m 10.83,-31.1363 c 3.0504,-1.0831 11.3896,-5.2166 12.3463,-6.1189 0.379,-0.3251 -4.9096,-7.888 -7.3825,-10.6316 -1.2093,-1.3357 -3.8809,-3.4475 -5.9927,-4.7109 -4.0071,-2.4188 -4.9638,-3.9532 -4.9638,-7.7616 l -0.072,-2.3646 -1.9675,3.7545 c -1.9675,3.628 -5.5956,7.2561 -13.2489,13.3027 -1.9131,1.4621 -4.2596,3.8268 -5.1621,5.2166 -1.2093,1.7147 -3.0504,3.1226 -6.3718,4.7832 l -4.6567,2.3646 6.9491,1.6606 c 9.9998,2.3646 9.4221,2.2923 18.4652,2.0395 6.4258,-0.1262 9.0972,-0.4513 12.0393,-1.5341 v 0 z"
           style="fill:#000000;fill-opacity:1;fill-rule:evenodd;stroke:none"
           id="path40" />
        <path
           d="m 407.9234,502.0464 -2.2201,-0.7583 -0.1987,-5.0358 c -0.1262,-2.7436 0.1264,-6.4981 0.5054,-8.2851 1.5885,-7.7074 6.6787,-14.6383 13.1766,-17.8874 3.249,-1.6606 4.4583,-1.9134 10.0539,-2.094 6.173,-0.1261 6.2994,-0.1261 4.7832,0.9567 -4.7832,3.2491 -11.3355,11.0106 -16.0464,18.9706 -2.6172,4.5848 -5.3427,9.8011 -5.9927,11.6603 -0.6316,1.787 -1.3357,3.3032 -1.5341,3.2491 -0.1988,0 -1.3357,-0.3249 -2.5453,-0.7583 v 0 z"
           style="fill:#000000;fill-opacity:1;fill-rule:evenodd;stroke:none"
           id="path42" />
        <path
           d="m 317.4928,498.2919 c -17.9598,-5.415 -30.1255,-10.3788 -37.887,-15.541 -5.5953,-3.7003 -21.5156,-21.0104 -58.7707,-63.9331 l -5.8663,-6.6787 v -8.8444 -8.8444 l 2.6172,-4.8376 c 1.4621,-2.6172 7.3825,-12.7973 13.1766,-22.6707 9.8733,-16.8046 14.3316,-24.3314 32.9232,-55.7203 13.1763,-22.0932 39.1683,-66.352 51.0633,-86.9111 10.3788,-17.8333 26.4975,-45.3957 28.5914,-48.8432 l 1.8411,-3.0504 h 45.6483 45.7208 l -10.7036,10.7037 c -7.6351,7.6351 -11.4619,11.967 -13.5555,15.4148 -6.6787,11.0826 -62.2727,99.2026 -69.1498,109.6537 -3.7542,5.794 -4.6568,6.6784 -13.1221,13.1224 -4.9638,3.8807 -13.7543,10.7036 -19.5483,15.2884 -5.794,4.5845 -10.5772,8.2125 -10.7037,8.0864 -0.2528,-0.2529 6.8049,-12.2922 24.3857,-41.3887 26.0461,-43.0494 39.7281,-65.5217 54.4388,-89.149 5.036,-8.0144 9.801,-15.8479 10.6313,-17.3823 l 1.5885,-2.6714 h -15.5953 -15.5951 l -1.5886,2.6714 c -0.8302,1.5344 -3.7,6.2994 -6.2994,10.7036 -2.6714,4.3863 -21.6419,36.3529 -42.2189,70.9909 -20.5589,34.7102 -45.1432,75.9001 -54.6373,91.6939 -9.4223,15.7215 -17.4546,29.2952 -17.8336,30.0532 -0.7038,1.5886 -0.7038,1.5886 27.7611,34.1867 3.1227,3.5019 15.162,17.3282 26.75,30.5589 11.6603,13.3027 22.9235,26.1726 25.0895,28.6634 5.036,5.7399 5.0902,5.9924 0.8302,4.7109 v 0 z"
           style="fill:#000000;fill-opacity:1;fill-rule:evenodd;stroke:none"
           id="path44" />
        <path
           d="m 108.203,488.5449 c -5.5956,-1.2095 -11.0107,-4.3321 -15.0359,-8.5376 -6.2452,-6.5523 -8.9708,-13.8804 -8.9708,-23.9344 0.0723,-14.0068 7.0756,-26.6238 19.6745,-35.342 2.6716,-1.8411 12.0937,-7.0756 20.8839,-11.5881 8.8447,-4.5124 18.4111,-9.8733 21.3353,-11.7867 9.5482,-6.4256 17.2015,-15.9741 20.8837,-25.9739 2.9965,-8.2128 3.0506,-8.2848 8.9708,-12.2921 3.0506,-2.0395 6.5523,-4.2596 7.7615,-4.9096 l 2.1663,-1.0829 -0.4513,4.3319 c -1.6608,16.6241 -9.6208,33.6813 -20.5591,44.2588 -7.1297,6.9491 -12.6712,10.3788 -32.9775,20.5588 -17.2014,8.5918 -21.0824,11.0106 -25.6671,15.848 -4.5125,4.8373 -6.552,9.3679 -6.9491,15.6673 -0.5055,6.8772 0.8302,10.7578 5.1621,15.0358 6.8772,6.8772 16.8769,6.0466 20.7034,-1.7146 2.7437,-5.6679 1.2816,-11.3355 -4.386,-17.3282 l -3.2491,-3.4475 3.4475,-2.2201 c 4.9638,-3.1768 7.4548,-4.3864 8.2851,-4.0794 1.4621,0.5777 5.036,7.5087 6.2994,12.0393 1.0832,4.0071 1.2093,5.8663 0.8303,13.8805 -0.5054,11.7144 -0.758,12.8698 -3.7545,15.9202 -5.7398,5.9204 -15.7215,8.6641 -24.3856,6.6784 v 0 z"
           style="fill:#000000;fill-opacity:1;fill-rule:evenodd;stroke:none"
           id="path46" />
        <path
           d="m 153.2197,451.741 v -24.5843 l 3.7545,-2.8698 c 2.0936,-1.5885 3.9529,-2.9242 4.1332,-2.9242 0.2528,0 0.3251,11.0826 0.2528,24.584 l -0.1987,24.5844 -3.9529,2.8698 -4.0071,2.87 v -24.512 0 z"
           style="fill:#000000;fill-opacity:1;fill-rule:evenodd;stroke:none"
           id="path48" />
        <path
           d="m 174.2298,435.3154 v -25.5407 l 3.2491,-3.5739 c 6.8048,-7.6352 14.0791,-20.505 17.8333,-31.6418 l 1.5344,-4.4583 0.1984,38.8437 c 0.0723,21.3891 0,39.1686 -0.1264,39.5476 -0.1262,0.379 -3.1227,2.1659 -6.552,4.007 -3.4475,1.787 -8.2128,4.3861 -10.7036,5.794 -2.4188,1.3357 -4.6571,2.4908 -4.9096,2.545 -0.3249,0 -0.5055,-11.4616 -0.5055,-25.5407 v 0 z"
           style="fill:#000000;fill-opacity:1;fill-rule:evenodd;stroke:none"
           id="path50" />
        <path
           d="m 290.8148,409.0706 c -1.2093,-3.4475 -1.9672,-13.6817 -1.3357,-18.5914 1.0109,-7.8338 4.4583,-16.6782 9.1695,-23.6276 1.7147,-2.6172 9.8734,-11.0826 10.6314,-11.0826 0.1987,0 0,1.6605 -0.4513,3.7004 -1.5883,6.6784 -0.9564,13.3749 1.9134,20.1257 l 1.0108,2.4908 -4.386,4.5847 c -2.4188,2.545 -5.5415,6.3717 -7.0759,8.5918 -2.9239,4.3319 -7.6351,13.1766 -7.6351,14.4581 0,1.7147 -1.2093,1.3357 -1.8411,-0.6318 z"
           style="fill:#000000;fill-opacity:1;fill-rule:evenodd;stroke:none"
           id="path52" />
        <path
           d="m 112.21,371.0032 c -6.8048,-1.5885 -15.4148,-8.5376 -18.5374,-14.9093 -2.7978,-5.6676 -3.8265,-11.2632 -3.0504,-16.6241 2.166,-14.9635 13.4291,-24.4576 29.2229,-24.4576 5.794,0 11.0106,-0.8306 13.7543,-2.1662 l 1.787,-0.8845 v 8.8447 8.8444 h -7.888 c -9.4221,0 -13.8804,0.7583 -16.9311,2.8701 -9.1692,6.3714 -4.7831,20.3062 7.13,22.6706 1.9131,0.3793 5.794,0.4513 8.9708,0.1987 l 5.5412,-0.379 v 7.96 7.8877 l -2.9239,0.4513 c -4.1335,0.5777 -14.0792,0.3792 -17.0572,-0.3249 v 0 z"
           style="fill:#000000;fill-opacity:1;fill-rule:evenodd;stroke:none"
           id="path54" />
        <path
           d="m 145.0069,367.7542 c -0.4513,-1.4621 -0.9567,-4.7109 -1.1552,-7.202 -1.1554,-15.2884 6.1731,-21.5155 47.3092,-40.432 29.999,-13.754 40.8109,-21.5878 50.3594,-36.1 6.1189,-9.368 9.0972,-18.0862 9.0972,-26.5516 0,-8.9167 -2.3646,-14.1333 -9.043,-20.4327 l -4.6571,-4.4583 -0.072,-3.8265 c 0,-2.6714 -0.5054,-4.9638 -1.6605,-7.581 l -1.6608,-3.7545 3.5019,-7.0755 c 3.0503,-6.173 3.4475,-7.4546 3.1768,-9.9998 -0.2529,-2.8698 -0.1265,-2.9962 1.9131,-4.0071 2.7436,-1.2815 2.5452,-1.3357 3.7003,0.8844 0.5777,1.1552 1.4621,1.9134 2.2201,1.9134 1.1551,0 1.2093,0.3249 0.8303,4.9638 -0.3249,4.6567 -0.1984,5.2163 1.9675,10.5052 1.4621,3.5736 2.2924,6.552 2.2924,8.4112 0,3.6281 1.0108,3.6281 2.6172,0 l 1.2816,-2.7978 -2.0396,-4.657 c -1.6608,-3.7542 -2.0939,-5.5412 -2.0939,-9.2957 -0.0723,-4.386 0.0723,-4.7832 1.7147,-6.2453 2.0398,-1.7869 3.4477,-1.9134 6.4981,-0.6318 2.0937,0.8844 4.6568,3.8809 3.9529,4.5847 -0.1984,0.2529 -1.1551,-0.1984 -2.0937,-0.9566 -2.0398,-1.5883 -5.4691,-1.787 -6.6787,-0.2526 -1.6605,1.9675 -1.0828,6.4978 1.5886,12.0934 2.6172,5.4692 2.6172,5.5956 1.2815,13.6279 -0.3248,1.7869 0.0723,3.1768 1.9134,6.7507 6.173,12.0934 6.552,28.3926 0.9564,42.9228 -4.079,10.6316 -12.5447,22.0932 -22.3458,30.3783 -10.3788,8.7179 -16.2451,12.0393 -52.9225,29.6742 -21.8407,10.5049 -33.7536,19.2231 -38.6453,28.4649 -1.0829,2.0396 -2.0396,3.7542 -2.166,3.7542 -0.1261,0 -0.5054,-1.2092 -0.9567,-2.6713 v 0 z m 100.2858,-144.743 c 1.8411,-3.9529 1.7149,-5.5956 -0.6316,-9.3679 l -1.408,-2.4188 -1.4621,3.5016 -1.4621,3.5019 1.4621,4.1332 c 0.7583,2.2924 1.5344,4.1335 1.6606,4.1335 0.1264,0 0.9567,-1.5882 1.8411,-3.5016 v 0 z"
           style="fill:#000000;fill-opacity:1;fill-rule:evenodd;stroke:none"
           id="path56" />
        <path
           d="m 153.2197,264.3999 v -55.0888 h 4.1335 4.1334 v 51.7674 c 0,28.3927 -0.1987,52.2729 -0.3792,52.977 -0.3249,1.0828 -6.2995,5.415 -7.5087,5.415 -0.1984,0 -0.379,-24.7646 -0.379,-55.0888 v 0 z"
           style="fill:#000000;fill-opacity:1;fill-rule:evenodd;stroke:none"
           id="path58" />
        <path
           d="M 174.2298,250.4472 V 194.0227 H 136.6679 99.1599 L 89.106,185.0519 c -5.5415,-4.9637 -10.8842,-9.8011 -11.9671,-10.83 l -1.9134,-1.8411 h 77.2359 c 42.4177,0 77.182,0.1987 77.182,0.5054 -0.0723,0.5054 -16.4976,12.6711 -24.205,17.8336 -2.6172,1.7869 -5.4692,3.3029 -6.3717,3.4475 l -1.5886,0.1984 -0.1984,50.3597 -0.1264,50.3595 -10.3788,5.4692 c -5.6676,2.9962 -10.83,5.6676 -11.3893,5.9204 -1.0831,0.379 -1.1554,-2.5452 -1.1554,-56.0273 z"
           style="fill:#000000;fill-opacity:1;fill-rule:evenodd;stroke:none"
           id="path60" />
        <path
           d="m 94.0516,302.3589 c -1.5883,-2.8698 -3.2488,-10.8842 -3.2488,-15.3425 0,-8.339 2.2201,-13.6817 8.1584,-19.8729 9.6749,-9.9998 25.1438,-9.8733 35.0172,0.3249 l 2.1659,2.2201 -0.2528,9.0972 c -0.1984,7.888 -0.451,9.6205 -1.7147,12.4724 -1.5341,3.4478 -4.9096,7.0036 -8.2128,8.7183 l -1.9131,0.9567 1.2093,-3.1768 c 3.7544,-9.8011 1.2092,-18.5375 -6.1731,-21.3353 -2.4188,-0.9567 -3.249,-0.9567 -5.5414,-0.2525 -8.2848,2.4188 -10.6313,9.3679 -7.1297,20.7575 0.3249,1.1551 0.0723,1.4621 -1.408,1.787 -0.9567,0.2525 -3.7003,1.4621 -6.0468,2.6713 -4.0071,2.0396 -4.3319,2.0937 -4.9096,0.9567 v 0 z"
           style="fill:#000000;fill-opacity:1;fill-rule:evenodd;stroke:none"
           id="path62" />
        <path
           d="m 214.8605,259.0571 -3.0504,-1.0108 v -14.711 c 0,-8.0864 -0.1987,-16.1186 -0.3793,-17.8333 l -0.3248,-3.1226 3.1226,3.3032 c 7.6351,7.96 10.054,19.0428 6.7507,30.7573 -1.1551,4.2596 -1.2815,4.2596 -6.1188,2.6172 z"
           style="fill:#000000;fill-opacity:1;fill-rule:evenodd;stroke:none"
           id="path64" />
        <path
           d="m 124.3035,236.6932 c -4.3319,-1.715 -6.6243,-4.0793 -7.7616,-8.1587 -0.5774,-1.8411 -0.8302,-3.5739 -0.6315,-3.7545 0.6315,-0.7038 5.866,0.5054 8.2848,1.9134 3.0503,1.6606 4.5847,4.1335 5.1624,8.2848 0.5775,3.5017 0.072,3.7004 -5.036,1.715 v 0 z"
           style="fill:#000000;fill-opacity:1;fill-rule:evenodd;stroke:none"
           id="path66" />
        <path
           d="m 249.9316,195.124 c 1.5885,-2.6173 1.7146,-5.9928 0.2528,-9.0431 -1.0831,-2.2201 -1.0831,-2.2201 0.758,-4.1335 2.2201,-2.3647 3.0504,-2.4908 2.0939,-0.2528 -0.5777,1.2095 -0.5777,2.2923 0,4.4583 0.451,1.5344 0.758,3.628 0.758,4.657 0,2.166 -2.4908,6.0469 -4.0793,6.2995 -1.1551,0.2528 -1.0831,0.1264 0.1987,-1.9676 v 0 z"
           style="fill:#000000;fill-opacity:1;fill-rule:evenodd;stroke:none"
           id="path68" />
        <path
           d="m 446.9474,380.7862 -0.6137,-5.4148 c -0.1262,-1.1914 -0.2707,-2.7618 -0.415,-4.7471 l -0.2889,-3.7905 -0.4691,-0.5236 h -2.7437 l -0.4694,0.4694 c -0.0723,4.2778 -0.3248,6.6966 -0.758,7.3103 -0.7219,0.9927 -5.1443,1.48 -13.2488,1.48 -1.2997,0 -3.3392,-0.0902 -6.1189,-0.2708 -0.343,-3.2309 -0.5235,-9.0249 -0.5235,-17.3641 v -6.3896 l 5.3608,-0.1446 c 1.6246,-0.036 4.6029,0.0363 8.9708,0.1987 0.8666,0.036 1.4262,0.2526 1.6969,0.7039 0.4872,0.758 0.758,2.8338 0.8662,6.2453 l 0.4695,0.4872 h 2.942 l 0.4694,-0.4872 c -0.1082,-3.5377 -0.1805,-6.7867 -0.1805,-9.711 0,-3.2128 0.0723,-6.6784 0.1805,-10.487 l -0.4694,-0.415 h -3.1768 l -0.4872,0.4691 c 0,3.3214 -0.1265,5.2708 -0.4153,5.8482 -0.5414,1.1012 -2.166,1.7691 -4.8915,1.9856 -1.8592,0.1443 -3.7003,0.2348 -5.5051,0.2348 -2.166,0 -4.1154,-0.0542 -5.8303,-0.1446 v -11.2813 c 0,-7.4906 0.2165,-12.3823 0.6137,-14.6926 0.1624,-0.9207 0.7041,-1.4981 1.6245,-1.7509 0.2166,-0.0723 2.4729,-0.2347 6.7867,-0.4873 l 0.4694,-0.4694 v -3.1768 l -0.5235,-0.4873 -19.0789,0.2889 c -2.7255,0.036 -6.4797,-0.0723 -11.281,-0.2889 l -0.4695,0.4331 v 3.2131 l 0.4695,0.4692 c 3.2127,0.1987 5.072,0.3611 5.5593,0.4872 0.9025,0.2347 1.4439,0.8306 1.6064,1.751 0.4152,2.3105 0.6137,7.202 0.6137,14.6928 v 25.0895 c 0,7.4908 -0.1985,12.4004 -0.6137,14.6928 -0.1625,0.9204 -0.7039,1.4981 -1.6064,1.7688 -0.4873,0.1083 -2.3284,0.2707 -5.5593,0.4691 l -0.4695,0.4694 v 3.2128 l 0.4695,0.4334 c 3.0322,-0.1987 7.9058,-0.2888 14.6024,-0.2888 4.3319,0 14.9995,0.0901 31.9665,0.2888 l 0.4692,-0.3971 z m 76.1352,-66.2074 -0.4876,-0.4873 -9.6565,0.1443 c -1.5885,0.0363 -4.3503,-0.0179 -8.3033,-0.1443 -0.9564,1.1733 -2.4908,3.7545 -4.6386,7.7434 l -9.8733,18.2667 -3.7367,-5.3608 c -4.7469,-6.8049 -9.1332,-13.682 -13.1762,-20.6493 -1.4621,0.0901 -2.9061,0.1443 -4.3682,0.1443 -2.9421,0 -5.0902,-0.0542 -6.444,-0.1443 l -0.4873,0.4873 v 3.0325 l 0.4873,0.5235 c 2.5993,0.1985 4.1516,0.4692 4.693,0.8122 0.9388,0.5955 3.0867,3.1767 6.444,7.7434 l 6.2093,8.3933 c 0.2344,0.3249 2.7797,3.7364 7.5988,10.2524 l -3.6099,6.3717 -5.794,9.9995 c -4.0975,7.0758 -7.238,11.2635 -9.3861,12.5629 -0.7038,0.4334 -1.4799,0.6678 -2.2742,0.6678 -0.6319,0 -1.6245,-0.0541 -2.9421,-0.1443 l -0.6137,0.4873 -0.3793,2.509 0.4153,0.7041 c 4.4583,0.9022 10.1982,2.1838 17.2018,3.7905 2.0035,-1.2997 4.0612,-3.6281 6.173,-7.0036 1.029,-1.6424 2.5991,-4.4765 4.7472,-8.4472 l 5.3608,-9.9638 6.173,9.0249 c 5.1084,7.4549 8.4113,12.5269 9.9275,15.2164 1.2997,-0.1264 2.5813,-0.1987 3.8447,-0.1987 2.1118,0 4.278,0.0723 6.444,0.1987 l 0.4873,-0.4694 v -3.1408 l -0.4873,-0.4691 c -2.166,-0.0363 -3.6281,-0.2707 -4.3322,-0.7042 -0.7039,-0.4331 -2.0937,-1.9493 -4.1514,-4.4943 -2.0576,-2.5631 -4.7653,-6.1189 -8.1045,-10.6676 -1.8592,-2.545 -4.1513,-5.6857 -6.8408,-9.4402 1.5882,-2.9058 3.8446,-7.0033 6.7867,-12.2919 l 6.0647,-10.4511 c 3.3573,-5.7398 5.4513,-9.0068 6.3357,-9.7469 0.8663,-0.7401 2.2742,-1.1191 4.2418,-1.1191 l 0.4873,-0.4694 v -3.0322 z"
           style="fill:#000000;fill-opacity:1;fill-rule:nonzero;stroke:none"
           id="path70" />
      </g>
    </g>
  </g>
</svg>
